<svg xmlns="http://www.w3.org/2000/svg" xmlns:xlink="http://www.w3.org/1999/xlink" fill="currentColor" stroke="currentColor" viewBox="0 0 509.321 509.321"><defs><clipPath id="a"><path d="M-250 54.279h500v-500h-500z"/></clipPath><clipPath id="b"><path d="M-336.997 245.275h500v-500h-500z"/></clipPath><clipPath id="c"><path d="M-242.266 133.976h500v-500h-500z"/></clipPath><clipPath id="d"><path d="M-232.595 135.074h500v-500h-500z"/></clipPath><clipPath id="e"><path d="M-223.057 137.01h500v-500h-500z"/></clipPath><clipPath id="f"><path d="M-213.723 139.77h500v-500h-500z"/></clipPath><clipPath id="g"><path d="M-204.666 143.334h500v-500h-500z"/></clipPath><clipPath id="h"><path d="M-195.953 147.673h500v-500h-500z"/></clipPath><clipPath id="i"><path d="M-187.653 152.755h500v-500h-500z"/></clipPath><clipPath id="j"><path d="M-179.826 158.541h500v-500h-500z"/></clipPath><clipPath id="k"><path d="M-172.534 164.987h500v-500h-500z"/></clipPath><clipPath id="l"><path d="M-165.831 172.044h500v-500h-500z"/></clipPath><clipPath id="m"><path d="M-159.769 179.658h500v-500h-500z"/></clipPath><clipPath id="n"><path d="M-154.393 187.772h500v-500h-500z"/></clipPath><clipPath id="o"><path d="M-149.745 196.324h500v-500h-500z"/></clipPath><clipPath id="p"><path d="M-145.86 205.248h500v-500h-500z"/></clipPath><clipPath id="q"><path d="M-142.768 214.477h500v-500h-500z"/></clipPath><clipPath id="r"><path d="M-140.492 223.939h500v-500h-500z"/></clipPath><clipPath id="s"><path d="M-139.049 233.565h500v-500h-500z"/></clipPath><clipPath id="t"><path d="M0 500h500V0H0z"/></clipPath><clipPath id="u"><path d="M-138.701 253.009h500v-500h-500z"/></clipPath><clipPath id="v"><path d="M-139.799 262.68h500v-500h-500z"/></clipPath><clipPath id="w"><path d="M-141.735 272.219h500v-500h-500z"/></clipPath><clipPath id="x"><path d="M-144.495 281.552h500v-500h-500z"/></clipPath><clipPath id="y"><path d="M-148.058 290.609h500v-500h-500z"/></clipPath><clipPath id="z"><path d="M-152.398 299.322h500v-500h-500z"/></clipPath><clipPath id="A"><path d="M-157.479 307.623h500v-500h-500z"/></clipPath><clipPath id="B"><path d="M-163.265 315.449h500v-500h-500z"/></clipPath><clipPath id="C"><path d="M-169.711 322.742h500v-500h-500z"/></clipPath><clipPath id="D"><path d="M-176.769 329.444h500v-500h-500z"/></clipPath><clipPath id="E"><path d="M-184.383 335.507h500v-500h-500z"/></clipPath><clipPath id="F"><path d="M-192.497 340.882h500v-500h-500z"/></clipPath><clipPath id="G"><path d="M-201.049 345.53h500v-500h-500z"/></clipPath><clipPath id="H"><path d="M-209.972 349.415h500v-500h-500z"/></clipPath><clipPath id="I"><path d="M-219.201 352.507h500v-500h-500z"/></clipPath><clipPath id="J"><path d="M-228.664 354.784h500v-500h-500z"/></clipPath><clipPath id="K"><path d="M-238.29 356.226h500v-500h-500z"/></clipPath><clipPath id="L"><path d="M-257.734 356.574h500v-500h-500z"/></clipPath><clipPath id="M"><path d="M-267.405 355.477h500v-500h-500z"/></clipPath><clipPath id="N"><path d="M-276.944 353.54h500v-500h-500z"/></clipPath><clipPath id="O"><path d="M-286.277 350.78h500v-500h-500z"/></clipPath><clipPath id="P"><path d="M-295.334 347.217h500v-500h-500z"/></clipPath><clipPath id="Q"><path d="M-304.047 342.878h500v-500h-500z"/></clipPath><clipPath id="R"><path d="M-312.347 337.796h500v-500h-500z"/></clipPath><clipPath id="S"><path d="M-320.174 332.01h500v-500h-500z"/></clipPath><clipPath id="T"><path d="M-327.466 325.564h500v-500h-500z"/></clipPath><clipPath id="U"><path d="M-334.169 318.507h500v-500h-500z"/></clipPath><clipPath id="V"><path d="M-340.231 310.892h500v-500h-500z"/></clipPath><clipPath id="W"><path d="M-345.607 302.778h500v-500h-500z"/></clipPath><clipPath id="X"><path d="M-350.255 294.227h500v-500h-500z"/></clipPath><clipPath id="Y"><path d="M-354.14 285.303h500v-500h-500z"/></clipPath><clipPath id="Z"><path d="M-357.232 276.074h500v-500h-500z"/></clipPath><clipPath id="aa"><path d="M-359.508 266.611h500v-500h-500z"/></clipPath><clipPath id="ab"><path d="M-360.951 256.985h500v-500h-500z"/></clipPath><clipPath id="ac"><path d="M0 500h500V0H0z"/></clipPath><clipPath id="ad"><path d="M-361.299 237.541h500v-500h-500z"/></clipPath><clipPath id="ae"><path d="M-360.201 227.87h500v-500h-500z"/></clipPath><clipPath id="af"><path d="M-358.265 218.332h500v-500h-500z"/></clipPath><clipPath id="ag"><path d="M-355.505 208.998h500v-500h-500z"/></clipPath><clipPath id="ah"><path d="M-351.942 199.941h500v-500h-500z"/></clipPath><clipPath id="ai"><path d="M-347.603 191.229h500v-500h-500z"/></clipPath><clipPath id="aj"><path d="M-342.521 182.928h500v-500h-500z"/></clipPath><clipPath id="ak"><path d="M-336.735 175.101h500v-500h-500z"/></clipPath><clipPath id="al"><path d="M-330.289 167.809h500v-500h-500z"/></clipPath><clipPath id="am"><path d="M-323.231 161.106h500v-500h-500z"/></clipPath><clipPath id="an"><path d="M-315.617 155.044h500v-500h-500z"/></clipPath><clipPath id="ao"><path d="M-307.503 149.668h500v-500h-500z"/></clipPath><clipPath id="ap"><path d="M-298.952 145.02h500v-500h-500z"/></clipPath><clipPath id="aq"><path d="M-290.027 141.135h500v-500h-500z"/></clipPath><clipPath id="ar"><path d="M-280.799 138.043h500v-500h-500z"/></clipPath><clipPath id="as"><path d="M-271.336 135.767h500v-500h-500z"/></clipPath><clipPath id="at"><path d="M-261.71 134.324h500v-500h-500z"/></clipPath><clipPath id="au"><path d="M-98.04 212.827h500v-500h-500z"/></clipPath><clipPath id="av"><path d="M-401.959 212.827h500v-500h-500z"/></clipPath><clipPath id="aw"><path d="M-279.788 402.11h500v-500h-500z"/></clipPath><clipPath id="ax"><path d="M-220.211 402.11h500v-500h-500z"/></clipPath><clipPath id="az"><path d="M-250 257.539h500v-500h-500z"/></clipPath><clipPath id="aA"><path d="M-250 221.908h500v-500h-500z"/></clipPath><clipPath id="aB"><path d="M-250 268.643h500v-500h-500z"/></clipPath><clipPath id="aC"><path d="M-250 257.539h500v-500h-500z"/></clipPath><clipPath id="aD"><path d="M-250 257.539h500v-500h-500z"/></clipPath><path id="ay" d="M0 0c-6.773 0-12.264 5.491-12.264 12.264S-6.773 24.529 0 24.529s12.264-5.491 12.264-12.265S6.773 0 0 0m0 29.669c-9.613 0-17.405-7.792-17.405-17.405A17.41 17.41 0 0 1 0-5.141a17.41 17.41 0 0 1 17.405 17.405c0 9.613-7.792 17.405-17.405 17.405"/></defs><g transform="translate(-78.673 -72.373)"><path d="M0 0c-25.781 0-50.795-5.051-74.346-15.012-22.744-9.62-43.169-23.391-60.708-40.93s-31.309-37.963-40.929-60.708c-9.962-23.551-15.012-48.565-15.012-74.346s5.05-50.795 15.012-74.346c9.62-22.745 23.391-43.17 40.929-60.708s37.964-31.309 60.708-40.929c23.551-9.962 48.565-15.012 74.346-15.012s50.795 5.05 74.346 15.012c22.745 9.62 43.17 23.39 60.709 40.929s31.309 37.963 40.929 60.708c9.961 23.551 15.012 48.565 15.012 74.346s-5.051 50.795-15.012 74.346c-9.62 22.745-23.391 43.17-40.929 60.708s-37.964 31.31-60.709 40.93C50.795-5.051 25.781 0 0 0m0-6.814c101.721 0 184.182-82.461 184.182-184.182S101.721-375.177 0-375.177s-184.181 82.46-184.181 184.181S-101.72-6.814 0-6.814" clip-path="url(#a)" transform="matrix(1.33333 0 0 -1.33333 333.333 72.373)"/><path fill="none" d="M0 0c0 48.047-38.95 86.997-86.997 86.997S-173.994 48.047-173.994 0s38.95-86.997 86.997-86.997S0-48.047 0 0" clip-path="url(#b)" transform="matrix(1.33333 0 0 -1.33333 449.33 327.034)"/><path d="m0 0-3.976-.348-2.002 22.878 3.976.348z" clip-path="url(#c)" transform="matrix(1.33333 0 0 -1.33333 323.021 178.635)"/><path d="m0 0-3.931-.693-3.987 22.616 3.93.693z" clip-path="url(#d)" transform="matrix(1.33333 0 0 -1.33333 310.127 180.099)"/><path d="m0 0-3.855-1.033-5.944 22.182 3.855 1.033z" clip-path="url(#e)" transform="matrix(1.33333 0 0 -1.33333 297.409 182.68)"/><path d="m0 0-3.751-1.365-7.854 21.58 3.75 1.365z" clip-path="url(#f)" transform="matrix(1.33333 0 0 -1.33333 284.964 186.36)"/><path d="m0 0-3.617-1.687-9.706 20.814 3.618 1.686z" clip-path="url(#g)" transform="matrix(1.33333 0 0 -1.33333 272.888 191.111)"/><path d="m0 0-3.457-1.996-11.482 19.889 3.456 1.995z" clip-path="url(#h)" transform="matrix(1.33333 0 0 -1.33333 261.271 196.897)"/><path d="m0 0-3.269-2.289-13.173 18.812 3.27 2.289z" clip-path="url(#i)" transform="matrix(1.33333 0 0 -1.33333 250.203 203.673)"/><path d="m0 0-3.057-2.566-14.762 17.593 3.057 2.565z" clip-path="url(#j)" transform="matrix(1.33333 0 0 -1.33333 239.768 211.387)"/><path d="m0 0-2.822-2.822-16.239 16.238 2.822 2.823z" clip-path="url(#k)" transform="matrix(1.33333 0 0 -1.33333 230.045 219.982)"/><path d="m0 0-2.566-3.057-17.592 14.761 2.566 3.058z" clip-path="url(#l)" transform="matrix(1.33333 0 0 -1.33333 221.108 229.392)"/><path d="m0 0-2.289-3.269-18.812 13.172 2.289 3.269z" clip-path="url(#m)" transform="matrix(1.33333 0 0 -1.33333 213.025 239.544)"/><path d="m0 0-1.996-3.457-19.888 11.483 1.996 3.457z" clip-path="url(#n)" transform="matrix(1.33333 0 0 -1.33333 205.857 250.363)"/><path d="m0 0-1.687-3.617L-22.5 6.088l1.687 3.617z" clip-path="url(#o)" transform="matrix(1.33333 0 0 -1.33333 199.66 261.765)"/><path d="m0 0-1.365-3.751-21.58 7.855 1.365 3.75z" clip-path="url(#p)" transform="matrix(1.33333 0 0 -1.33333 194.48 273.664)"/><path d="m0 0-1.033-3.855-22.183 5.944 1.033 3.855z" clip-path="url(#q)" transform="matrix(1.33333 0 0 -1.33333 190.357 285.969)"/><path d="m0 0-.693-3.931L-23.309.057l.693 3.931z" clip-path="url(#r)" transform="matrix(1.33333 0 0 -1.33333 187.322 298.586)"/><path d="m0 0-.348-3.976-22.877 2.001.347 3.977z" clip-path="url(#s)" transform="matrix(1.33333 0 0 -1.33333 185.399 311.42)"/><path d="M138.45 252.729h-22.965v3.991h22.965z" clip-path="url(#t)" transform="matrix(1.33333 0 0 -1.33333 0 666.667)"/><path d="m0 0 .348-3.976-22.878-2.002-.348 3.976z" clip-path="url(#u)" transform="matrix(1.33333 0 0 -1.33333 184.935 337.346)"/><path d="m0 0 .693-3.931-22.616-3.987-.693 3.93z" clip-path="url(#v)" transform="matrix(1.33333 0 0 -1.33333 186.398 350.24)"/><path d="m0 0 1.033-3.855-22.183-5.944-1.033 3.855z" clip-path="url(#w)" transform="matrix(1.33333 0 0 -1.33333 188.98 362.958)"/><path d="m0 0 1.365-3.751-21.58-7.854-1.365 3.751z" clip-path="url(#x)" transform="matrix(1.33333 0 0 -1.33333 192.66 375.403)"/><path d="m0 0 1.687-3.617-20.814-9.706-1.686 3.618z" clip-path="url(#y)" transform="matrix(1.33333 0 0 -1.33333 197.411 387.48)"/><path d="m0 0 1.996-3.457-19.889-11.482-1.995 3.456z" clip-path="url(#z)" transform="matrix(1.33333 0 0 -1.33333 203.197 399.096)"/><path d="m0 0 2.289-3.269-18.812-13.173-2.289 3.27z" clip-path="url(#A)" transform="matrix(1.33333 0 0 -1.33333 209.972 410.164)"/><path d="m0 0 2.566-3.057-17.593-14.762-2.565 3.057z" clip-path="url(#B)" transform="matrix(1.33333 0 0 -1.33333 217.687 420.599)"/><path d="m0 0 2.822-2.822-16.238-16.239-2.823 2.822z" clip-path="url(#C)" transform="matrix(1.33333 0 0 -1.33333 226.282 430.322)"/><path d="m0 0 3.057-2.566-14.761-17.592-3.058 2.566z" clip-path="url(#D)" transform="matrix(1.33333 0 0 -1.33333 235.691 439.26)"/><path d="m0 0 3.269-2.289-13.172-18.812-3.269 2.289z" clip-path="url(#E)" transform="matrix(1.33333 0 0 -1.33333 245.844 447.342)"/><path d="m0 0 3.457-1.996-11.483-19.888-3.457 1.996z" clip-path="url(#F)" transform="matrix(1.33333 0 0 -1.33333 256.663 454.51)"/><path d="m0 0 3.617-1.687L-6.088-22.5l-3.617 1.687z" clip-path="url(#G)" transform="matrix(1.33333 0 0 -1.33333 268.065 460.707)"/><path d="m0 0 3.751-1.365-7.855-21.58-3.75 1.365z" clip-path="url(#H)" transform="matrix(1.33333 0 0 -1.33333 279.963 465.887)"/><path d="m0 0 3.855-1.033-5.944-22.183-3.855 1.033z" clip-path="url(#I)" transform="matrix(1.33333 0 0 -1.33333 292.268 470.01)"/><path d="m0 0 3.931-.693-3.988-22.616-3.931.693z" clip-path="url(#J)" transform="matrix(1.33333 0 0 -1.33333 304.886 473.045)"/><path d="m0 0 3.976-.348-2.001-22.877-3.977.347z" clip-path="url(#K)" transform="matrix(1.33333 0 0 -1.33333 317.72 474.968)"/><path d="m0 0 3.976.348L5.978-22.53l-3.976-.348z" clip-path="url(#L)" transform="matrix(1.33333 0 0 -1.33333 343.645 475.432)"/><path d="m0 0 3.931.693 3.987-22.616-3.93-.693z" clip-path="url(#M)" transform="matrix(1.33333 0 0 -1.33333 356.54 473.969)"/><path d="m0 0 3.855 1.033 5.944-22.182-3.855-1.034z" clip-path="url(#N)" transform="matrix(1.33333 0 0 -1.33333 369.258 471.387)"/><path d="m0 0 3.751 1.365 7.854-21.58-3.75-1.365z" clip-path="url(#O)" transform="matrix(1.33333 0 0 -1.33333 381.703 467.707)"/><path d="m0 0 3.617 1.687 9.706-20.814-3.618-1.686z" clip-path="url(#P)" transform="matrix(1.33333 0 0 -1.33333 393.779 462.956)"/><path d="m0 0 3.457 1.996 11.482-19.889-3.456-1.995z" clip-path="url(#Q)" transform="matrix(1.33333 0 0 -1.33333 405.395 457.17)"/><path d="m0 0 3.269 2.289 13.173-18.812-3.27-2.289z" clip-path="url(#R)" transform="matrix(1.33333 0 0 -1.33333 416.463 450.395)"/><path d="m0 0 3.057 2.566 14.762-17.593-3.057-2.565z" clip-path="url(#S)" transform="matrix(1.33333 0 0 -1.33333 426.899 442.68)"/><path d="m0 0 2.822 2.822 16.239-16.238-2.822-2.823z" clip-path="url(#T)" transform="matrix(1.33333 0 0 -1.33333 436.622 434.085)"/><path d="m0 0 2.566 3.057 17.592-14.761-2.566-3.058z" clip-path="url(#U)" transform="matrix(1.33333 0 0 -1.33333 445.559 424.675)"/><path d="m0 0 2.289 3.269L21.101-9.903l-2.289-3.269z" clip-path="url(#V)" transform="matrix(1.33333 0 0 -1.33333 453.642 414.523)"/><path d="m0 0 1.996 3.457L21.884-8.026l-1.996-3.457z" clip-path="url(#W)" transform="matrix(1.33333 0 0 -1.33333 460.81 403.704)"/><path d="m0 0 1.687 3.617L22.5-6.088l-1.687-3.617z" clip-path="url(#X)" transform="matrix(1.33333 0 0 -1.33333 467.006 392.302)"/><path d="m0 0 1.365 3.751 21.58-7.855-1.365-3.751z" clip-path="url(#Y)" transform="matrix(1.33333 0 0 -1.33333 472.186 380.404)"/><path d="m0 0 1.033 3.855 22.183-5.944-1.034-3.855z" clip-path="url(#Z)" transform="matrix(1.33333 0 0 -1.33333 476.31 368.099)"/><path d="m0 0 .693 3.931L23.309-.057l-.693-3.931z" clip-path="url(#aa)" transform="matrix(1.33333 0 0 -1.33333 479.344 355.481)"/><path d="m0 0 .348 3.976 22.877-2.001-.347-3.977z" clip-path="url(#ab)" transform="matrix(1.33333 0 0 -1.33333 481.268 342.647)"/><path d="M361.549 256.72h22.965v-3.991h-22.965z" clip-path="url(#ac)" transform="matrix(1.33333 0 0 -1.33333 0 666.667)"/><path d="m0 0-.348 3.976L22.53 5.978l.348-3.976z" clip-path="url(#ad)" transform="matrix(1.33333 0 0 -1.33333 481.732 316.721)"/><path d="m0 0-.693 3.931 22.616 3.987.693-3.93z" clip-path="url(#ae)" transform="matrix(1.33333 0 0 -1.33333 480.269 303.827)"/><path d="m0 0-1.033 3.855 22.182 5.944 1.033-3.855z" clip-path="url(#af)" transform="matrix(1.33333 0 0 -1.33333 477.687 291.109)"/><path d="m0 0-1.365 3.751 21.58 7.854 1.365-3.751z" clip-path="url(#ag)" transform="matrix(1.33333 0 0 -1.33333 474.006 278.664)"/><path d="m0 0-1.687 3.617 20.814 9.706 1.686-3.618z" clip-path="url(#ah)" transform="matrix(1.33333 0 0 -1.33333 469.255 266.588)"/><path d="m0 0-1.996 3.457 19.889 11.482 1.995-3.457z" clip-path="url(#ai)" transform="matrix(1.33333 0 0 -1.33333 463.47 254.972)"/><path d="m0 0-2.289 3.269 18.812 13.173 2.289-3.27z" clip-path="url(#aj)" transform="matrix(1.33333 0 0 -1.33333 456.694 243.904)"/><path d="m0 0-2.566 3.057 17.593 14.762 2.565-3.057z" clip-path="url(#ak)" transform="matrix(1.33333 0 0 -1.33333 448.98 233.468)"/><path d="m0 0-2.822 2.822 16.238 16.239 2.823-2.822z" clip-path="url(#al)" transform="matrix(1.33333 0 0 -1.33333 440.385 223.745)"/><path d="m0 0-3.057 2.566 14.761 17.592 3.058-2.566z" clip-path="url(#am)" transform="matrix(1.33333 0 0 -1.33333 430.975 214.808)"/><path d="m0 0-3.269 2.289L9.903 21.101l3.269-2.289z" clip-path="url(#an)" transform="matrix(1.33333 0 0 -1.33333 420.823 206.725)"/><path d="m0 0-3.457 1.996L8.026 21.884l3.457-1.996z" clip-path="url(#ao)" transform="matrix(1.33333 0 0 -1.33333 410.004 199.558)"/><path d="m0 0-3.617 1.687L6.088 22.5l3.617-1.687z" clip-path="url(#ap)" transform="matrix(1.33333 0 0 -1.33333 398.602 193.36)"/><path d="m0 0-3.751 1.365 7.855 21.58 3.75-1.365z" clip-path="url(#aq)" transform="matrix(1.33333 0 0 -1.33333 386.703 188.18)"/><path d="m0 0-3.855 1.033 5.944 22.183 3.855-1.034z" clip-path="url(#ar)" transform="matrix(1.33333 0 0 -1.33333 374.398 184.058)"/><path d="m0 0-3.931.693L.057 23.309l3.931-.693z" clip-path="url(#as)" transform="matrix(1.33333 0 0 -1.33333 361.78 181.023)"/><path d="m0 0-3.976.348 2.001 22.877 3.977-.347z" clip-path="url(#at)" transform="matrix(1.33333 0 0 -1.33333 348.947 179.099)"/><path d="M554.055 309.965h-.844v2.297h-25.547v-2.297h-.859v21.375l8.484.313v-.766c-4.234-1.172-7.625-4.609-7.625-9.547v-1.484h12.5v.938c0 2.734-1.516 4.203-5.422 5.141v.656h11.531v-.578c-2.953-.656-5.094-2.297-5.094-4.828v-1.328h12.031v1.375c0 4.703-1.766 6.531-6.859 8.672v.703l7.703-.391z"/><path d="m0 0-4.166.885c6.53 30.731 21.918 58.655 44.499 80.752 22.613 22.129 50.912 36.911 81.838 42.75l.79-4.185C61.308 108.562 13.042 61.38 0 0" clip-path="url(#au)" transform="matrix(1.33333 0 0 -1.33333 130.72 283.77)"/><path d="M0 0c-13.041 61.38-61.306 108.561-122.961 120.202l.79 4.185c30.926-5.839 59.225-20.621 81.838-42.75C-17.751 59.54-2.364 31.616 4.166.885z" clip-path="url(#av)" transform="matrix(1.33333 0 0 -1.33333 535.946 283.77)"/><path d="m0 0-.79 4.186c63.737 12.033 113.674 63.111 124.262 127.101l4.202-.695C116.795 64.845 65.487 12.364 0 0" clip-path="url(#aw)" transform="matrix(1.33333 0 0 -1.33333 373.05 536.147)"/><path d="M0 0c-65.488 12.364-116.795 64.845-127.673 130.592l4.201.695C-112.884 67.297-62.947 16.219.79 4.186z" clip-path="url(#ax)" transform="matrix(1.33333 0 0 -1.33333 293.615 536.147)"/><use xlink:href="#ay" clip-path="url(#az)" transform="matrix(1.33333 0 0 -1.33333 333.333 343.386)"/><path fill="red" stroke="red" d="M0 0a23.24 23.24 0 0 0 14.329-4.929L0 118.402-14.329-4.929A23.24 23.24 0 0 0 0 0" clip-path="url(#aA)" transform="matrix(1.33333 0 0 -1.33333 333.333 295.877)"/><path d="M0 0a23.24 23.24 0 0 0-14.329 4.929L0-118.402 14.329 4.929A23.24 23.24 0 0 0 0 0" clip-path="url(#aB)" transform="matrix(1.33333 0 0 -1.33333 333.333 358.19)"/><g transform="matrix(1.33333 0 0 -1.33333 333.333 343.386)"><use xlink:href="#ay" clip-path="url(#aC)"/><path fill="red" d="M0 0c-6.773 0-12.264 5.491-12.264 12.264S-6.773 24.529 0 24.529s12.264-5.491 12.264-12.265S6.773 0 0 0" clip-path="url(#aD)"/></g><path d="m125.297 324.246-18.656 6.359v-2.734h-.734v12.656h.734v-1.828l26.906-9.812v-3.391l-17.594-5.062 17.594-5.766v-3.453l-26.906-7.172v-2.562h-.734v7.781h.734v-3.938l18.422 4.672-18.422 5.813v-2.297h-.734v12.062h.734v-2.219l7.438-2.328zM331.305 524.08c4.281 0 8.062 4.563 10.016 8.453h.656l-.391-9.266h-.547c-.312.734-.547 1.172-1.172 1.172-1.078 0-4.359-1.172-8.125-1.172-5.734 0-9.547 3.703-9.547 9.312 0 6.453 4.781 7.938 9.109 9.109 3.937 1.047 6.578 2.016 6.578 4.906 0 2.297-1.937 3.922-4.75 3.922-4 0-6.656-3.891-8.641-7.469h-.625l.281 7.859h.422c.266-.5.469-.766 1.125-.766 1.328 0 3.359 1.203 6.937 1.203 6 0 9.219-4.094 9.219-8.453 0-5.875-3.578-7.75-8.281-9.078-4.797-1.359-7.203-2.406-7.203-5.641 0-2.844 2.609-4.094 4.937-4.094zm11.367-419.857h2.141v-.734h-5.328v.734h2.141v18.812l-10.203-19.547h-10.75v.734h2.141v25.781h-2.141v.734h5.344v-.734h-2.141V105.55l13.344 25.187h5.453z"/></g></svg>