<svg xmlns="http://www.w3.org/2000/svg" fill="currentColor" viewBox="0 0 512 512"><path d="M182.33 196.973a12 12 0 0 1 23.884-2.362l15.25 154.308a12 12 0 0 1-10.764 13.122q-.6.06-1.195.06a12 12 0 0 1-11.927-10.821zM301.3 362.041q.601.06 1.194.06a12 12 0 0 0 11.928-10.822l15.25-154.306a12 12 0 0 0-23.884-2.362l-15.25 154.308a12 12 0 0 0 10.762 13.122m-45.99.059a12 12 0 0 0 12-12V195.792a12 12 0 0 0-24 0V350.1a12 12 0 0 0 11.997 12zm150.4-212.208a12 12 0 0 1-12 12h-14.449l-20.079 203.17A47.465 47.465 0 0 1 311.789 408H200.21a47.463 47.463 0 0 1-47.392-42.939l-20.079-203.169h-14.445a12 12 0 1 1 0-24h89.37V116a12 12 0 0 1 12-12h72.671a12 12 0 0 1 12 12v21.892h89.37a12 12 0 0 1 12 12zm-174.041-12h48.671V128h-48.676zm123.48 24H156.856L176.7 362.7a23.543 23.543 0 0 0 23.51 21.3h111.579a23.544 23.544 0 0 0 23.511-21.3zM512 256c0 141.159-114.841 256-256 256S0 397.159 0 256 114.841 0 256 0s256 114.841 256 256m-24 0c0-127.925-104.075-232-232-232S24 128.075 24 256s104.075 232 232 232 232-104.075 232-232"/></svg>