<svg xmlns="http://www.w3.org/2000/svg" fill="currentColor" viewBox="0 0 64 64"><path d="M61.6 28.2 57 24.75V5a3 3 0 0 0-3-3H24a1 1 0 0 0-.707.293l-16 16A1 1 0 0 0 7 19v21.75L2.4 44.2a1 1 0 0 0 0 1.6L7 49.25V59a3 3 0 0 0 3 3h44a3 3 0 0 0 3-3V33.25l4.6-3.45a1 1 0 0 0 0-1.6M23 5.414V17a1 1 0 0 1-1 1H10.414zM18 35v4a1 1 0 0 0 1 1h21v10H19a1 1 0 0 0-1 1v4L4.667 45zm37 24a1 1 0 0 1-1 1H10a1 1 0 0 1-1-1v-8.25l9.4 7.05A1 1 0 0 0 20 57v-5h21a1 1 0 0 0 1-1V39a1 1 0 0 0-1-1H20v-5a1 1 0 0 0-1.6-.8L9 39.25V20h13a3 3 0 0 0 3-3V4h29a1 1 0 0 1 1 1v18.25l-9.4-7.05a1 1 0 0 0-1.6.8v5H23a1 1 0 0 0-1 1v12a1 1 0 0 0 1 1h21v5a1 1 0 0 0 1.6.8l9.4-7.05zm-9-20v-4a1 1 0 0 0-1-1H24V24h21a1 1 0 0 0 1-1v-4l13.333 10z"/></svg>