<svg xmlns="http://www.w3.org/2000/svg" fill="currentColor" viewBox="0 0 188.111 188.111"><path d="M122.735 55.676 53.951 82.395a7.5 7.5 0 0 0-.471 13.78l26.172 12.286 12.291 26.172a7.5 7.5 0 0 0 13.78-.472l26.719-68.778a7.501 7.501 0 0 0-9.707-9.707zm-24.656 56.737-6.001-12.778a7.498 7.498 0 0 0-3.602-3.601l-12.773-5.996 36.59-14.213-14.214 36.588zM94.052 0C42.192.001.001 42.194.001 94.055s42.191 94.056 94.052 94.057 94.058-42.194 94.058-94.056S145.916 0 94.052 0zm0 173.111C50.463 173.11 15 137.646 15 94.054S50.462 15 94.052 14.999s79.058 35.464 79.058 79.056-35.465 79.055-79.058 79.056z"/></svg>