<svg xmlns="http://www.w3.org/2000/svg" fill="currentColor" viewBox="0 0 512 512"><path d="M256 0C114.841 0 0 114.841 0 256s114.841 256 256 256 256-114.841 256-256S397.159 0 256 0m0 480C132.486 480 32 379.514 32 256S132.486 32 256 32s224 100.486 224 224-100.486 224-224 224m134.901-310.498c0 8.836-7.163 16-16 16H185.628c-8.837 0-16-7.164-16-16s7.163-16 16-16h189.273c8.837 0 16 7.164 16 16m-238.7 5.372-.065.18c-2.361 6.502-8.501 10.543-15.04 10.543-1.813 0-3.657-.311-5.46-.965-8.306-3.016-12.594-12.195-9.578-20.5l.065-.18c3.017-8.306 12.197-12.594 20.5-9.578s12.594 12.194 9.578 20.5M390.901 256c0 8.836-7.163 16-16 16H185.628c-8.837 0-16-7.164-16-16s7.163-16 16-16h189.273c8.837 0 16 7.163 16 16m-238.7 5.371-.065.18c-2.361 6.502-8.501 10.543-15.04 10.543-1.813 0-3.657-.311-5.46-.965-8.306-3.016-12.594-12.195-9.578-20.5l.065-.18c3.017-8.306 12.197-12.592 20.5-9.578s12.594 12.194 9.578 20.5m238.7 81.126c0 8.836-7.163 16-16 16H185.628c-8.837 0-16-7.164-16-16s7.163-16 16-16h189.273c8.837 0 16 7.163 16 16m-238.7 5.371-.065.18c-2.361 6.502-8.501 10.543-15.04 10.543-1.813 0-3.657-.311-5.46-.965-8.306-3.016-12.594-12.195-9.578-20.5l.065-.18c3.017-8.305 12.197-12.593 20.5-9.578s12.594 12.194 9.578 20.5"/></svg>