<svg xmlns="http://www.w3.org/2000/svg" viewBox="-56 0 480 480" fill="currentColor"><path d="M344 0H24C10.746 0 0 10.746 0 24v432c0 13.254 10.746 24 24 24h320c13.254 0 24-10.746 24-24V24c0-13.254-10.746-24-24-24zm8 456a8 8 0 0 1-8 8H24a8 8 0 0 1-8-8V24a8 8 0 0 1 8-8h320a8 8 0 0 1 8 8zM328 32H40a8 8 0 0 0-8 8v400a8 8 0 0 0 8 8h288a8 8 0 0 0 8-8V40a8 8 0 0 0-8-8zm-8 400H48V48h272zM71.711 138.633a8 8 0 0 0 5.656-2.344l56.578-56.578c2.078-2.008 2.914-4.98 2.18-7.777a7.99 7.99 0 0 0-5.715-5.715c-2.797-.734-5.77.102-7.777 2.18l-56.578 56.578a8 8 0 0 0-1.73 8.715 7.99 7.99 0 0 0 7.387 4.941zm0 0"/><path d="M234.055 416.289c3.125 3.121 8.188 3.121 11.313 0l56.578-56.578c3.031-3.137 2.988-8.129-.098-11.215s-8.078-3.129-11.215-.098l-56.578 56.578c-3.121 3.125-3.121 8.188 0 11.313zM98.344 325.656c3.125 3.121 8.188 3.121 11.313 0l160-160c3.031-3.141 2.988-8.129-.098-11.215s-8.074-3.129-11.215-.098l-160 160c-3.121 3.125-3.121 8.188 0 11.313zm0 0"/></svg>
