<svg xmlns="http://www.w3.org/2000/svg" xmlns:xlink="http://www.w3.org/1999/xlink" fill="currentColor" viewBox="0 0 512 512"><path d="M437.019 74.98C388.667 26.629 324.38 0 256 0S123.332 26.629 74.98 74.98 0 187.619 0 256s26.629 132.668 74.98 181.02S187.619 512 256 512s132.667-26.629 181.019-74.98S512 324.38 512 256s-26.629-132.668-74.981-181.02zM256 482C131.383 482 30 380.617 30 256S131.383 30 256 30s226 101.383 226 226-101.383 226-226 226z"/><use xlink:href="#a"/><use xlink:href="#a" x="-96.4"/><defs><path id="a" d="M304.199 137.723c-8.284 0-15 6.716-15 15V359.28c0 8.284 6.716 15 15 15s15-6.716 15-15V152.723c0-8.284-6.716-15-15-15z"/></defs></svg>