<svg xmlns="http://www.w3.org/2000/svg" fill="currentColor" viewBox="0 0 128 128"><path d="m120.871 96.333-89.2-89.2a5.5 5.5 0 0 0-7.777 0L7.129 23.89a5.5 5.5 0 0 0 0 7.777l89.2 89.2a5.5 5.5 0 0 0 7.777 0l16.761-16.761a5.5 5.5 0 0 0 .004-7.773zm-2.475 5.3-16.76 16.76a2 2 0 0 1-2.829 0L9.6 29.193a2 2 0 0 1 0-2.829L26.364 9.6a2 2 0 0 1 2.829 0l2.822 2.822-9.3 9.3a1.75 1.75 0 1 0 2.475 2.475l9.3-9.3 4.282 4.283-5.014 5.02a1.749 1.749 0 1 0 2.474 2.474l5.015-5.014 4.282 4.283-5.014 5.014a1.75 1.75 0 0 0 2.475 2.475L48 28.415l4.286 4.285-5.014 5.014a1.75 1.75 0 0 0 2.475 2.475l5.014-5.015 4.282 4.283-9.3 9.3a1.75 1.75 0 1 0 2.474 2.475l9.305-9.3 4.278 4.279-5.014 5.014a1.75 1.75 0 0 0 2.475 2.475l5.014-5.014 4.282 4.282-5.014 5.014a1.75 1.75 0 1 0 2.475 2.475l5.014-5.014 4.282 4.282-5.014 5.014a1.75 1.75 0 1 0 2.475 2.475l5.014-5.014 4.283 4.282-9.305 9.305a1.75 1.75 0 1 0 2.475 2.474l9.3-9.3 4.283 4.282-5.015 5.014a1.75 1.75 0 1 0 2.475 2.475l5.015-5.018L99.585 80l-5.014 5.01a1.75 1.75 0 1 0 2.475 2.475l5.014-5.014 4.283 4.282-5.014 5.015a1.749 1.749 0 1 0 2.474 2.474l5.014-5.014 4.283 4.282-9.3 9.3a1.75 1.75 0 1 0 2.475 2.475l9.3-9.3 2.822 2.822a2 2 0 0 1 .003 2.829z"/></svg>