<svg xmlns="http://www.w3.org/2000/svg" viewBox="0 0 512 512"><path d="M501.912 397.155L114.39 9.633C101.555-3.2 80.669-3.2 67.834 9.633L9.627 67.842c-12.836 12.836-12.836 33.721 0 46.557l44.078 44.078c2.97 2.97 7.785 2.97 10.754 0s2.97-7.785 0-10.754l-44.078-44.078c-6.906-6.906-6.906-18.143 0-25.047L78.59 20.389c6.907-6.908 18.143-6.908 25.048 0l1.309 1.309-42.352 42.35c-2.97 2.971-2.97 7.785 0 10.754a7.58 7.58 0 0 0 10.754 0L115.7 32.45l14.194 14.194-18.981 18.981c-3.031 3.031-3.199 8.159-.095 11.115a7.58 7.58 0 0 0 10.62-.131l19.211-19.21 14.194 14.195-19.21 19.21c-2.97 2.971-2.97 7.785 0 10.754a7.58 7.58 0 0 0 10.754 0l19.211-19.21 14.194 14.194-19.21 19.211c-2.97 2.97-2.97 7.785 0 10.753a7.58 7.58 0 0 0 5.377 2.227c1.946 0 3.892-.742 5.377-2.228l19.21-19.21 14.195 14.195-42.351 42.351c-2.97 2.971-2.97 7.785 0 10.754a7.58 7.58 0 0 0 10.754 0l42.352-42.351 14.194 14.195-18.981 18.981c-3.031 3.031-3.199 8.159-.094 11.115a7.58 7.58 0 0 0 10.62-.131l19.21-19.211 14.194 14.194-18.981 18.981c-3.031 3.031-3.199 8.159-.095 11.115a7.58 7.58 0 0 0 10.62-.131l19.21-19.21 14.195 14.194-19.21 19.21c-2.97 2.971-2.97 7.785 0 10.754 1.485 1.484 3.432 2.227 5.378 2.227s3.892-.742 5.378-2.227l19.21-19.21 14.194 14.195-42.351 42.351c-2.97 2.971-2.97 7.785 0 10.754 1.485 1.484 3.432 2.227 5.378 2.227s3.892-.742 5.378-2.227l42.351-42.351 14.194 14.194-19.21 19.21c-2.97 2.971-2.97 7.785 0 10.754 1.485 1.484 3.432 2.227 5.378 2.227s3.892-.742 5.378-2.227l19.21-19.21 14.193 14.194-19.21 19.21c-2.97 2.971-2.97 7.785 0 10.754 1.485 1.484 3.432 2.227 5.378 2.227s3.892-.742 5.378-2.227l19.21-19.21 14.194 14.195-19.21 19.21c-2.97 2.971-2.97 7.785 0 10.754 1.485 1.484 3.432 2.227 5.378 2.227s3.892-.742 5.378-2.227l19.21-19.21 14.195 14.194-42.351 42.351c-2.97 2.971-2.97 7.785 0 10.754 1.485 1.484 3.432 2.227 5.378 2.227s3.892-.742 5.378-2.227l42.351-42.351 14.195 14.194-19.21 19.21c-2.97 2.971-2.97 7.785 0 10.754 1.485 1.484 3.432 2.227 5.378 2.227s3.892-.742 5.378-2.227l19.21-19.21 14.194 14.194-19.21 19.21c-2.97 2.971-2.97 7.785 0 10.754 1.485 1.484 3.432 2.227 5.378 2.227s3.892-.742 5.378-2.227l19.21-19.21 14.194 14.194-19.21 19.21c-2.97 2.971-2.97 7.785 0 10.754 1.485 1.484 3.432 2.227 5.378 2.227s3.892-.742 5.378-2.227l19.21-19.21 1.386 1.386c3.14 3.14 5.175 7.282 5.44 11.714.307 5.135-1.553 10.016-5.156 13.618l-58.209 58.208a17.73 17.73 0 0 1-25.046 0L89.552 172.815c-2.97-2.97-7.785-2.97-10.754 0s-2.97 7.785 0 10.754l318.796 318.796c6.418 6.417 14.848 9.626 23.278 9.626s16.86-3.209 23.278-9.626l58.209-58.208c6.349-6.35 9.786-14.838 9.637-23.839-.145-8.722-3.916-16.994-10.084-23.163z"/></svg>
