<svg xmlns="http://www.w3.org/2000/svg" fill="currentColor" viewBox="0 0 512 512"><path d="M423.938 88.062C379.08 43.204 319.438 18.5 256 18.5S132.92 43.204 88.062 88.062 18.5 192.562 18.5 256s24.704 123.08 69.562 167.938S192.562 493.5 256 493.5s123.08-24.704 167.938-69.563S493.5 319.438 493.5 256s-24.705-123.08-69.562-167.938M256 468.5c-117.173 0-212.5-95.327-212.5-212.5S138.827 43.5 256 43.5 468.5 138.827 468.5 256 373.173 468.5 256 468.5m125.578-256.641L290.5 136.695a12.501 12.501 0 0 0-20.457 9.641v26.727c-80.563 6.39-144.165 73.992-144.165 156.17 0 13.394 1.7 26.711 5.051 39.582a12.5 12.5 0 0 0 24.194 0c14.025-53.861 60.309-92.618 114.92-97.794v25.644a12.5 12.5 0 0 0 20.457 9.641l91.078-75.164a12.5 12.5 0 0 0 0-19.283m-86.535 58.283v-12.211c0-6.903-5.597-12.5-12.5-12.5-53.888 0-102.653 27.488-131.015 70.665 6.611-66.458 62.846-118.527 131.015-118.527 6.903 0 12.5-5.597 12.5-12.5v-12.21l58.94 48.642z"/></svg>