<svg xmlns="http://www.w3.org/2000/svg" fill="currentColor" viewBox="0 0 512 512"><path d="M336.691 210.17c29.811 0 54.063-24.253 54.063-54.064s-24.253-54.064-54.063-54.064-54.064 24.253-54.064 54.064c0 3.365.324 6.654.916 9.851l-106.546 53.381c-9.884-10.692-24.014-17.402-39.688-17.402-29.811 0-54.064 24.253-54.064 54.064s24.253 54.064 54.064 54.064c15.673 0 29.804-6.71 39.688-17.402l106.546 53.381a54 54 0 0 0-.916 9.851c0 29.811 24.253 54.064 54.064 54.064s54.063-24.253 54.063-54.064-24.253-54.064-54.063-54.064c-15.674 0-29.805 6.711-39.688 17.402l-106.546-53.381a53.4 53.4 0 0 0 0-19.701l106.546-53.381c9.883 10.691 24.014 17.401 39.688 17.401m0 121.66c13.269 0 24.063 10.795 24.063 24.064s-10.795 24.064-24.063 24.064-24.064-10.795-24.064-24.064 10.795-24.064 24.064-24.064m-199.382-51.766c-13.269 0-24.064-10.795-24.064-24.064s10.795-24.064 24.064-24.064 24.063 10.795 24.063 24.064-10.794 24.064-24.063 24.064m199.382-148.022c13.269 0 24.063 10.795 24.063 24.064s-10.795 24.064-24.063 24.064-24.064-10.795-24.064-24.064 10.795-24.064 24.064-24.064M437.02 74.98C388.667 26.629 324.38 0 256 0S123.333 26.629 74.98 74.98 0 187.62 0 256s26.629 132.667 74.98 181.02S187.62 512 256 512s132.667-26.629 181.02-74.98S512 324.38 512 256s-26.629-132.667-74.98-181.02M256 482C131.383 482 30 380.617 30 256S131.383 30 256 30s226 101.383 226 226-101.383 226-226 226"/></svg>