<svg xmlns="http://www.w3.org/2000/svg" fill="currentColor" viewBox="0 0 64 64"><path d="M32.229 22.629a10.194 10.194 0 0 0-10.182-10.182c-13.508.56-13.504 19.807 0 20.365A10.194 10.194 0 0 0 32.229 22.63zm-18.364 0a8.19 8.19 0 0 1 8.182-8.182c10.84.412 10.837 15.955 0 16.365a8.19 8.19 0 0 1-8.182-8.183m2.266-3.99a7.16 7.16 0 0 0-.801 6.401 1 1 0 0 0 1.883-.676 5.15 5.15 0 0 1 .576-4.606 1 1 0 0 0-1.657-1.119zm5.803-6.956a1 1 0 0 0 1-1v-5.1a1 1 0 1 0-2 0v5.101a1 1 0 0 0 1 1zm-9.121 3.286a1 1 0 0 0 1.414-1.414L10.62 9.948a1 1 0 0 0-1.414 1.414zm-1.711 7.773a1 1 0 0 0-1-1H5a1 1 0 0 0 0 2h5.101a1 1 0 0 0 1-1zm1.871 7.706-3.607 3.607a1 1 0 1 0 1.414 1.414l3.607-3.607a1 1 0 0 0-1.414-1.414m8.188 4.126v5.101a1 1 0 0 0 2 0v-5.101a1 1 0 0 0-2 0m8.706-4.286a1 1 0 0 0 0 1.414l3.607 3.607a1 1 0 0 0 1.414-1.414l-3.607-3.607a1 1 0 0 0-1.414 0m3.126-7.772a1 1 0 0 0 1 1h5.101a1 1 0 1 0 0-2h-5.102a1 1 0 0 0-1 1zm-2.579-7.414a1 1 0 0 0 .707-.293l3.607-3.607a1 1 0 0 0-1.414-1.414l-3.607 3.607a1.007 1.007 0 0 0 .707 1.707m26.313 1.967a1 1 0 0 0-1.414 0L15.274 57.107a1.007 1.007 0 0 0 .707 1.707 1 1 0 0 0 .707-.293l40.039-40.038a1 1 0 0 0 0-1.414m3.243 36.77a1.022 1.022 0 0 0-1.127-1.229c-9.708 1.527-16.444-9.708-10.527-17.561a1.018 1.018 0 0 0-.56-1.57c-7.835.542-13.359 9.295-10.891 16.674 2.97 10.285 17.214 12.645 23.105 3.687zm-7.402 3.098c-13.681 3.69-20.226-15.438-7.158-20.891A13.016 13.016 0 0 0 56.589 54.72a11 11 0 0 1-4.021 2.217"/></svg>