<svg xmlns="http://www.w3.org/2000/svg" fill="none" stroke="currentColor" stroke-linecap="round" stroke-linejoin="round" stroke-miterlimit="10" stroke-width="20" viewBox="0 0 512 512"><path d="M406 50H106a10 10 0 0 1-10-10V20a10 10 0 0 1 10-10h300a10 10 0 0 1 10 10v20a10 10 0 0 1-10 10m0 452H106a10 10 0 0 1-10-10v-20a10 10 0 0 1 10-10h300a10 10 0 0 1 10 10v20a10 10 0 0 1-10 10M396 50v36c0 82.556-71.172 133.81-112.026 156.425-4.932 2.73-7.974 7.937-7.974 13.575h0c0 5.638 3.042 10.845 7.974 13.575C324.828 292.19 396 343.444 396 426v36M116 50v36c0 82.556 71.172 133.81 112.026 156.425 4.932 2.73 7.974 7.937 7.974 13.575h0c0 5.638-3.042 10.845-7.974 13.575C187.182 292.19 116 343.444 116 426v36m40 0c4.274-5.388 39.559-48.321 100-48.321 6.878 0 62.441.966 100 48.321"/><path d="M256 311.893v-10m0 65.893v-10m123.04-204.969a235 235 0 0 0-59.68-7.717 234.7 234.7 0 0 0-63.51 8.76 234.7 234.7 0 0 1-63.51 8.76 234.6 234.6 0 0 1-58.012-7.288m93.698 87.093c4.554 2.515 14.711 7.326 28.433 7.217 13.2-.105 22.974-4.708 27.516-7.217"/></svg>