<svg xmlns="http://www.w3.org/2000/svg" fill="currentColor" fill-rule="evenodd" image-rendering="optimizeQuality" shape-rendering="geometricPrecision" viewBox="0 0 512 512"><path d="M270.88 447.79h-29.76c-5.25 0-9.51-4.27-9.51-9.51v-15.34a75 75 0 0 1-8.64-3.58l-10.85 10.85c-1.79 1.79-4.18 2.78-6.72 2.78s-4.93-.99-6.72-2.78l-21.05-21.05a9.45 9.45 0 0 1-2.78-6.72 9.47 9.47 0 0 1 2.78-6.73l10.84-10.84a74 74 0 0 1-3.58-8.65h-15.34a9.51 9.51 0 0 1-9.5-9.5v-29.77a9.51 9.51 0 0 1 9.5-9.5h15.34a76 76 0 0 1 3.58-8.65l-10.84-10.84a9.51 9.51 0 0 1 0-13.44l21.05-21.05c1.79-1.8 4.18-2.78 6.72-2.78s4.93.98 6.72 2.78l10.84 10.84a76 76 0 0 1 8.65-3.58v-15.34a9.51 9.51 0 0 1 9.5-9.5h29.77a9.52 9.52 0 0 1 9.51 9.5v15.34a76 76 0 0 1 8.64 3.58l10.85-10.85a9.43 9.43 0 0 1 6.72-2.78c2.54 0 4.93.99 6.72 2.78l21.05 21.05a9.52 9.52 0 0 1 0 13.45l-10.84 10.84c1.37 2.81 2.57 5.69 3.58 8.65h15.33a9.52 9.52 0 0 1 9.51 9.5v29.77a9.52 9.52 0 0 1-9.51 9.5h-15.33a76 76 0 0 1-3.59 8.65l10.85 10.84a9.52 9.52 0 0 1 0 13.45l-21.05 21.05c-1.79 1.79-4.18 2.78-6.72 2.78s-4.93-.99-6.72-2.78l-10.85-10.85c-2.8 1.38-5.69 2.57-8.64 3.59v15.33a9.53 9.53 0 0 1-9.51 9.51m-27.28-12h24.79v-17.26c0-2.7 1.81-5.07 4.41-5.79a62.7 62.7 0 0 0 14.38-5.96c2.35-1.34 5.3-.94 7.21.97l12.21 12.22 17.53-17.53-12.22-12.22a5.98 5.98 0 0 1-.97-7.2 63 63 0 0 0 5.96-14.38 5.99 5.99 0 0 1 5.78-4.41h17.27v-24.79h-17.26c-2.7 0-5.07-1.8-5.79-4.4a62.6 62.6 0 0 0-5.96-14.39 5.996 5.996 0 0 1 .97-7.2l12.22-12.21-17.53-17.53-12.22 12.21c-1.91 1.91-4.86 2.32-7.2.98a63 63 0 0 0-14.38-5.97 5.995 5.995 0 0 1-4.41-5.78v-17.26H243.6v17.26c0 2.7-1.8 5.07-4.4 5.78a62.8 62.8 0 0 0-14.38 5.97c-2.35 1.33-5.3.94-7.21-.98l-12.21-12.21-17.53 17.53 12.22 12.21a6.01 6.01 0 0 1 .97 7.21 62.8 62.8 0 0 0-5.97 14.38c-.71 2.6-3.08 4.4-5.78 4.4h-17.26v24.79h17.26c2.7 0 5.07 1.81 5.78 4.41a63.2 63.2 0 0 0 5.96 14.38 5.98 5.98 0 0 1-.97 7.2l-12.21 12.22 17.53 17.53 12.21-12.22a5.994 5.994 0 0 1 7.21-.97 63.2 63.2 0 0 0 14.38 5.96c2.6.72 4.4 3.08 4.4 5.78zm12.4-28.97c-30.32 0-54.98-24.67-54.98-54.98 0-30.32 24.66-54.98 54.98-54.98 30.31 0 54.98 24.66 54.98 54.98 0 30.31-24.67 54.98-54.98 54.98m0-97.97c-23.7 0-42.98 19.29-42.98 42.99s19.28 42.98 42.98 42.98 42.98-19.28 42.98-42.98-19.28-42.99-42.98-42.99m249.9-64.77h-84.39a6 6 0 0 1-6-6v-18.99h-58.99v18.99a5.99 5.99 0 0 1-5.99 6H161.47a6 6 0 0 1-6-6v-18.99H96.48v18.99a5.99 5.99 0 0 1-5.99 6H6.1a6 6 0 0 1-6-6v-52.15c0-3.31 2.69-6 6-6h499.8c3.31 0 6 2.69 6 6v52.15a6 6 0 0 1-6 6m-78.39-11.99h72.39v-40.16H12.1v40.16h72.39v-19a5.99 5.99 0 0 1 6-5.99h70.98c3.31 0 6 2.68 6 5.99v19h177.06v-19a5.99 5.99 0 0 1 6-5.99h70.98c3.31 0 6 2.68 6 5.99z"/><path d="M427.31 475.87H84.69c-37.65 0-68.29-30.63-68.29-68.29v-169.5c0-3.31 2.69-5.99 6-5.99h68.09a5.99 5.99 0 0 1 5.99 5.99v13.4c0 16.27 13.23 29.5 29.5 29.5 16.26 0 29.49-13.23 29.49-29.5v-13.4c0-3.31 2.69-5.99 6-5.99h189.06a5.99 5.99 0 0 1 5.99 5.99v13.4c0 16.27 13.23 29.5 29.5 29.5 16.26 0 29.49-13.23 29.49-29.5v-13.4c0-3.31 2.69-5.99 6-5.99h68.09c3.31 0 6 2.68 6 5.99v169.5c0 37.66-30.64 68.29-68.29 68.29M28.4 244.08v163.5c0 31.04 25.25 56.3 56.29 56.3h342.62c31.04 0 56.29-25.26 56.29-56.3v-163.5h-56.09v7.4c0 22.88-18.61 41.5-41.49 41.5s-41.49-18.62-41.49-41.5v-7.4H167.47v7.4c0 22.88-18.61 41.5-41.49 41.5s-41.49-18.62-41.49-41.5v-7.4zm461.2-52.15H22.4h.01-.01a5.97 5.97 0 0 1-4.24-1.76 5.97 5.97 0 0 1-1.76-4.24v-26.08c0-17.68 14.39-32.07 32.07-32.07h415.06c17.68 0 32.07 14.39 32.07 32.07v26.08a6 6 0 0 1-6 6m-461.2-12h455.2v-20.08c0-11.07-9-20.07-20.07-20.07H48.47c-11.07 0-20.07 9.01-20.07 20.07z"/><path d="M368.81 139.78H143.22c-1.76 0-3.44-.78-4.58-2.12a5.96 5.96 0 0 1-1.34-4.85l10.65-65.09c3-18.31 18.22-31.59 36.19-31.59h143.72c17.97 0 33.19 13.28 36.19 31.59l10.58 64.6c.11.47.18.96.18 1.46 0 3.31-2.69 6-6 6m-218.54-12h211.46l-9.52-58.12c-2.04-12.48-12.28-21.54-24.35-21.54H184.14c-12.06 0-22.31 9.06-24.35 21.54z"/><path d="M343.47 139.78H168.54c-1.76 0-3.44-.78-4.58-2.12a6 6 0 0 1-1.34-4.85l9.99-61.06c1.03-6.26 5.77-10.63 11.53-10.63h143.72c5.76 0 10.5 4.37 11.53 10.64l9.99 61.05a5.96 5.96 0 0 1-1.34 4.85 6 6 0 0 1-4.57 2.12m-167.87-12h160.81l-8.86-54.09c-.04-.25-.1-.44-.16-.58H184.62a2.4 2.4 0 0 0-.17.58zM71.07 420.47a5.99 5.99 0 0 1-5.99-6v-98.08a5.99 5.99 0 0 1 5.99-6c3.32 0 6 2.68 6 6v98.08c0 3.32-2.68 6-6 6m30.62 0a6 6 0 0 1-6-6v-98.08a6 6 0 0 1 6-6 5.99 5.99 0 0 1 5.99 6v98.08a5.99 5.99 0 0 1-5.99 6m308.62 0a5.99 5.99 0 0 1-5.99-6v-98.08a5.99 5.99 0 0 1 5.99-6 6 6 0 0 1 6 6v98.08c0 3.32-2.68 6-6 6m30.62 0c-3.32 0-6-2.68-6-6v-98.08c0-3.32 2.68-6 6-6a5.99 5.99 0 0 1 5.99 6v98.08a5.99 5.99 0 0 1-5.99 6"/></svg>