<svg xmlns="http://www.w3.org/2000/svg" fill="currentColor" viewBox="0 0 612 612"><path d="M306 163.2c11.267 0 20.4-9.133 20.4-20.4V102c0-11.267-9.133-20.4-20.4-20.4s-20.4 9.133-20.4 20.4v40.8c0 11.267 9.133 20.4 20.4 20.4zm204 122.4h-40.8c-11.267 0-20.4 9.133-20.4 20.4s9.133 20.4 20.4 20.4H510c11.267 0 20.4-9.133 20.4-20.4s-9.133-20.4-20.4-20.4zM306 448.8c-11.267 0-20.4 9.133-20.4 20.4V510c0 11.267 9.133 20.4 20.4 20.4s20.4-9.133 20.4-20.4v-40.8c0-11.267-9.133-20.4-20.4-20.4zM163.2 306c0-11.267-9.133-20.4-20.4-20.4H102c-11.267 0-20.4 9.133-20.4 20.4s9.133 20.4 20.4 20.4h40.8c11.267 0 20.4-9.133 20.4-20.4zm13.056-100.98c7.957 7.91 20.807 7.91 28.764 0 7.91-7.957 7.91-20.807 0-28.764l-28.764-28.968c-7.999-7.999-20.969-7.999-28.968 0s-7.999 20.969 0 28.968zm245.208 5.916a20.401 20.401 0 0 0 14.28-5.916l28.968-28.764c7.999-7.999 7.999-20.969 0-28.968s-20.969-7.999-28.968 0L408 176.256c-7.91 7.957-7.91 20.807 0 28.764a20.4 20.4 0 0 0 13.464 5.916zM435.744 408c-9.846-5.477-22.267-1.935-27.744 7.911a20.4 20.4 0 0 0 0 19.833l28.764 28.968a20.4 20.4 0 0 0 14.484 5.916 20.4 20.4 0 0 0 14.484-5.916c7.999-7.934 8.052-20.85.118-28.85l-.118-.118zm-259.488 0-28.968 27.744c-7.999 7.934-8.052 20.85-.118 28.85l.118.118a20.4 20.4 0 0 0 14.484 5.916 20.4 20.4 0 0 0 14.484-5.916l28.764-28.968c6.028-9.518 3.198-22.121-6.32-28.149a20.4 20.4 0 0 0-22.444.405zM306 183.6c-67.6 0-122.4 54.8-122.4 122.4S238.4 428.4 306 428.4 428.4 373.6 428.4 306 373.6 183.6 306 183.6zm0 204c-45.066 0-81.6-36.534-81.6-81.6s36.534-81.6 81.6-81.6 81.6 36.534 81.6 81.6-36.534 81.6-81.6 81.6z"/><path d="M306 0C137.001 0 0 137.001 0 306s137.001 306 306 306 306-137.001 306-306S474.999 0 306 0zm0 571.2C159.534 571.2 40.8 452.466 40.8 306S159.534 40.8 306 40.8 571.2 159.534 571.2 306 452.466 571.2 306 571.2z"/></svg>