<svg xmlns="http://www.w3.org/2000/svg" viewBox="0 0 189.524 189.524" fill-rule="evenodd" fill="currentColor"><path d="M94.762 180.048c47.102 0 85.286-38.183 85.286-85.286S141.865 9.476 94.762 9.476 9.476 47.66 9.476 94.762s38.184 85.286 85.286 85.286zm0 9.476c52.335 0 94.762-42.427 94.762-94.762S147.097 0 94.762 0 0 42.426 0 94.762s42.426 94.762 94.762 94.762zm24.624-94.762L75.809 65.711v58.103zm8.804-5.519c3.939 2.626 3.939 8.413 0 11.039l-51.545 34.364c-4.408 2.939-10.313-.222-10.313-5.52V60.399c0-5.298 5.905-8.458 10.313-5.519z"/></svg>
