<svg xmlns="http://www.w3.org/2000/svg" fill="currentColor" viewBox="0 0 512 512"><path d="M96 120v104H64V120zM64 288v104h32V288zm168-168v104h32V120zm0 168v104h32V288zm184-168v104h32V120zm0 168v104h32V288zM160 120v104h16V120zm0 168v104h16V288zm32-168v104h16V120zm0 168v104h16V288zm144-168v104h16V120zm0 168v104h16V288zm32-168v104h16V120zm0 168v104h16V288zM120 120v104h24V120zm0 168v104h24V288zm168-168v104h24V120zm0 168v104h24V288zm200-48H24v32h464zM32 88h72V72H16v88h16zm464-16h-88v16h72v72h16zM104 424H32v-72H16v88h88zm392-72h-16v72h-72v16h88z"/></svg>