<svg xmlns="http://www.w3.org/2000/svg" viewBox="0 0 463 463" fill="currentColor"><path d="M395.195 67.805C351.471 24.08 293.336 0 231.5 0S111.529 24.08 67.805 67.805 0 169.664 0 231.5s24.08 119.971 67.805 163.695S169.664 463 231.5 463s119.971-24.08 163.695-67.805S463 293.336 463 231.5s-24.08-119.971-67.805-163.695zm-10.606 316.784C343.697 425.48 289.329 448 231.5 448s-112.197-22.52-153.089-63.411S15 289.329 15 231.5 37.52 119.303 78.411 78.411 173.671 15 231.5 15s112.197 22.52 153.089 63.411S448 173.671 448 231.5s-22.52 112.197-63.411 153.089zM231.5 32C121.495 32 32 121.495 32 231.5S121.495 431 231.5 431 431 341.505 431 231.5 341.505 32 231.5 32zm7.5 383.835V383.5a7.5 7.5 0 1 0-15 0v32.335C128.22 411.985 51.015 334.78 47.165 239H79.5a7.5 7.5 0 1 0 0-15H47.165C51.015 128.22 128.22 51.015 224 47.165V79.5a7.5 7.5 0 1 0 15 0V47.165C334.78 51.015 411.985 128.22 415.835 224H383.5a7.5 7.5 0 1 0 0 15h32.335C411.985 334.78 334.78 411.985 239 415.835zm93.454-295.189l-144 64a7.5 7.5 0 0 0-3.808 3.808l-64 144a7.5 7.5 0 0 0 1.55 8.349c1.437 1.437 3.355 2.197 5.305 2.197a7.49 7.49 0 0 0 3.044-.646l144-64a7.5 7.5 0 0 0 3.808-3.808l64-144a7.5 7.5 0 0 0-9.899-9.9zm-138.535 83.879l10.65 10.65C201.671 219.939 200 225.528 200 231.5c0 17.369 14.131 31.5 31.5 31.5 5.972 0 11.561-1.671 16.325-4.569l10.65 10.65-116.202 51.645 51.646-116.201zM231.5 248c-9.098 0-16.5-7.402-16.5-16.5s7.402-16.5 16.5-16.5 16.5 7.402 16.5 16.5-7.402 16.5-16.5 16.5zm37.581 10.475l-10.65-10.65c2.898-4.764 4.569-10.353 4.569-16.325 0-17.369-14.131-31.5-31.5-31.5-5.972 0-11.561 1.671-16.325 4.569l-10.65-10.65 116.202-51.645-51.646 116.201z"/></svg>
