<svg xmlns="http://www.w3.org/2000/svg" fill="currentColor" viewBox="0 0 64 64"><path d="M42.563 5.881a3 3 0 0 0-4.243 0L36.906 7.3a25.35 25.35 0 0 0-7.325 15.81L3.17 49.516a4 4 0 0 0 0 5.657l5.657 5.657a4 4 0 0 0 5.657 0L40.9 34.418a25.34 25.34 0 0 0 15.809-7.324l1.414-1.414a3 3 0 0 0 0-4.243zM13.069 59.416a2 2 0 0 1-2.828 0l-5.657-5.657a2 2 0 0 1 0-2.828L6 49.516 14.484 58zm2.831-2.828L7.412 48.1l23.13-23.13 8.486 8.486zm24.922-24.164-9.246-9.246a23.35 23.35 0 0 1 6.052-13.747l16.941 16.941a23.36 23.36 0 0 1-13.747 6.052m15.883-8.159-.705.707L39.028 8l.707-.707a1 1 0 0 1 1.414 0l15.556 15.558a1 1 0 0 1 0 1.414M27.04 32.01l-4.95 4.95a3.5 3.5 0 1 0 4.95 4.95l4.95-4.95a3.5 3.5 0 1 0-4.95-4.95m-1.414 8.49a1.503 1.503 0 0 1-2.126-2.126l2.723-2.723a3.39 3.39 0 0 0 2.122 2.122zm4.949-4.95a1.5 1.5 0 1 1 0-2.121 1.5 1.5 0 0 1 0 2.117z"/><rect width="6" height="2" x="53.757" y="6.243" rx="1" transform="rotate(-45 56.76 7.254)"/><path d="M50 8a1 1 0 0 0 1-1V3a1 1 0 0 0-2 0v4a1 1 0 0 0 1 1m11 5h-4a1 1 0 0 0 0 2h4a1 1 0 0 0 0-2"/></svg>