<svg xmlns="http://www.w3.org/2000/svg" viewBox="0 0 64 64" fill="currentColor"><path d="M32.707 21.394L14.313 3a2 2 0 0 0-2.828 0L3 11.485a2 2 0 0 0 0 2.828L49.687 61a2 2 0 0 0 2.828 0L61 52.515a2 2 0 0 0 0-2.828L42.606 31.293a1 1 0 0 0-1.414 0l-.707.707-2.121-2.121-4.243-4.243L32 23.515l.707-.707a1 1 0 0 0 0-1.414zM12.9 4.414l1.423 1.423-8.486 8.485L4.414 12.9zm38.2 55.173l-1.424-1.424 8.485-8.485 1.425 1.422zm5.647-11.323l-8.485 8.485L7.251 15.736l8.485-8.485L30.586 22.1l-.707.707-2.828 2.828a1 1 0 0 0 0 1.414l2.826 2.826 4.242 4.242 2.826 2.826a1 1 0 0 0 1.414 0l2.828-2.828.707-.707zm-19.09-13.436l-1.414-1.414L37.657 32l1.414 1.414zm-1.414-4.242L34.829 32 32 29.171l1.414-1.414zM32 26.343l-1.414 1.414-1.414-1.414 1.414-1.414zm15.556 26.211a5 5 0 1 0-3.535-1.462 4.988 4.988 0 0 0 3.535 1.462zm2.122-2.876a3 3 0 0 1-3.406.576l3.983-3.982a3 3 0 0 1-.577 3.406zm-4.243-4.243a2.965 2.965 0 0 1 3.405-.577l-3.982 3.982a3 3 0 0 1 .577-3.405zM19.979 12.908a5 5 0 1 0 0 7.071 5.006 5.006 0 0 0 0-7.071zm-5.657 1.414a2.964 2.964 0 0 1 3.406-.576l-3.983 3.982a3 3 0 0 1 .577-3.406zm4.243 4.243a3 3 0 0 1-3.405.577l3.982-3.982a3 3 0 0 1-.577 3.405zm-.711 4.951l1.414-1.414 21.916 21.916-1.414 1.414z"/></svg>
