<svg xmlns="http://www.w3.org/2000/svg" viewBox="0 0 682.66669 682.66669" fill="none" stroke="currentColor" stroke-width="20" stroke-linejoin="round" stroke-miterlimit="10" stroke-linecap="round"><path d="M465.907 153.533l-88.133-88.147a5.35 5.35 0 0 0-7.547 0l-81.507 81.507m203.933-23.187l-88.493-88.48c-16.653-16.667-43.667-16.667-60.333 0l-83.387 83.387M226.919 128.561c-14.319 14.319-14.319 37.535 0 51.855s37.535 14.32 51.856 0 14.319-37.536 0-51.855-37.537-14.319-51.856 0zm48.428 245.819L120.013 529.707m316.133-316.12L307.745 341.981M162.453 553.267l306.695-306.695M432.391 209.825l39.451 39.451c4.985 4.985 12.989 5.228 18.267.555L668.172 92.167c5.751-5.092 6.021-13.98.589-19.411L609.91 13.905a13.34 13.34 0 0 0-19.359.529L431.889 191.5c-4.725 5.273-4.505 13.319.501 18.325M200.44 672.667h37.707a6.67 6.67 0 0 0 6.339-8.733l-9.041-27.729a36.05 36.05 0 0 0-34.271-24.871H56.16a36.05 36.05 0 0 0-34.271 24.871l-9.041 27.729a6.67 6.67 0 0 0 6.339 8.733h134.587m10.374-61.334v-47.207c0-19.597-15.885-35.483-35.481-35.483s-35.483 15.885-35.483 35.483v47.207M350 592.667l-32 20m32 60l-32-20M66.569 427.613l8.484 36.769M10 484.181l36.769 8.485"/></svg>
