<svg xmlns="http://www.w3.org/2000/svg" fill="currentColor" viewBox="-56 0 480 480"><path d="M344 0H24C10.746 0 0 10.746 0 24v432c0 13.254 10.746 24 24 24h320c13.254 0 24-10.746 24-24V24c0-13.254-10.746-24-24-24zm8 456a8 8 0 0 1-8 8H24a8 8 0 0 1-8-8V24a8 8 0 0 1 8-8h320a8 8 0 0 1 8 8zM328 32H40a8 8 0 0 0-8 8v400a8 8 0 0 0 8 8h288a8 8 0 0 0 8-8V40a8 8 0 0 0-8-8zm-8 400H48V48h272zM71.711 138.633a8 8 0 0 0 5.656-2.344l56.578-56.578a7.993 7.993 0 0 0 2.18-7.777 7.99 7.99 0 0 0-5.715-5.715 7.992 7.992 0 0 0-7.777 2.18l-56.578 56.578a8 8 0 0 0-1.73 8.715 7.99 7.99 0 0 0 7.387 4.941zm0 0"/><path d="M234.055 416.289a8.005 8.005 0 0 0 11.313 0l56.578-56.578a8.001 8.001 0 0 0-11.313-11.313l-56.578 56.578a8.005 8.005 0 0 0 0 11.313zM98.344 325.656a8.005 8.005 0 0 0 11.313 0l160-160a8.001 8.001 0 0 0-11.313-11.313l-160 160a8.005 8.005 0 0 0 0 11.313zm0 0"/></svg>