<svg xmlns="http://www.w3.org/2000/svg" viewBox="0 0 480 480" fill="currentColor"><path d="M240 0C107.664 0 0 107.664 0 240s107.664 240 240 240 240-107.664 240-240S372.336 0 240 0zm0 448c-114.688 0-208-93.312-208-208S125.312 32 240 32s208 93.312 208 208-93.312 208-208 208zm133.952-229.264-224-89.6c-5.952-2.352-12.736-.976-17.264 3.552s-5.92 11.312-3.552 17.248l89.6 224A16.02 16.02 0 0 0 233.6 384a15.32 15.32 0 0 0 1.472-.064c7.056-.656 12.848-5.856 14.224-12.8L269.6 269.584l101.552-20.32a15.975 15.975 0 0 0 12.784-14.224c.64-7.04-3.424-13.664-9.984-16.304zM252.864 240.32a15.99 15.99 0 0 0-12.544 12.544l-11.84 59.216-55.744-139.36 139.36 55.744-59.232 11.856z"/></svg>
