<svg xmlns="http://www.w3.org/2000/svg" fill="currentColor" viewBox="0 0 469.333 469.333"><path d="M288 192c5.888 0 10.667-4.779 10.667-10.667s-4.779-10.667-10.667-10.667h-85.333c-5.888 0-10.667 4.779-10.667 10.667v128c0 5.888 4.779 10.667 10.667 10.667s10.667-4.779 10.667-10.667V256h53.333c5.888 0 10.667-4.779 10.667-10.667s-4.779-10.667-10.667-10.667h-53.333V192H288zm128 106.667h-42.667c-17.643 0-32-14.357-32-32V224c0-17.643 14.357-32 32-32H416c5.888 0 10.667-4.779 10.667-10.667s-4.779-10.667-10.667-10.667h-42.667C343.915 170.667 320 194.581 320 224v42.667C320 296.085 343.915 320 373.333 320H416c5.888 0 10.667-4.779 10.667-10.667s-4.779-10.666-10.667-10.666zM64 309.333v-92.779l65.792 98.688a10.674 10.674 0 0 0 8.875 4.757c1.024 0 2.069-.149 3.093-.448a10.69 10.69 0 0 0 7.573-10.219v-128c0-5.888-4.779-10.667-10.667-10.667S128 175.445 128 181.333v92.779l-65.792-98.688c-2.603-3.904-7.424-5.696-11.968-4.309a10.69 10.69 0 0 0-7.573 10.219v128c0 5.888 4.779 10.667 10.667 10.667S64 315.221 64 309.333zm338.325 77.419C358.72 426.24 300.672 448 238.827 448c-61.803 0-119.872-21.76-163.499-61.248-4.352-3.904-11.115-3.605-15.083.747a10.71 10.71 0 0 0 .747 15.083c47.573 43.051 110.741 66.752 177.835 66.752 67.115 0 130.283-23.701 177.835-66.752a10.71 10.71 0 0 0 .747-15.083c-3.99-4.352-10.71-4.651-15.084-.747zM145.579 355.52c-3.947 4.352-3.605 11.115.768 15.061 24.768 22.421 57.621 34.752 92.48 34.752 34.901 0 67.733-12.352 92.501-34.752a10.71 10.71 0 0 0 .747-15.083c-4.011-4.352-10.731-4.651-15.083-.747-20.8 18.88-48.576 29.248-78.165 29.248-29.568 0-57.344-10.389-78.187-29.248-4.288-3.903-11.072-3.604-15.061.769zM68.16 85.333c2.56 0 5.12-.917 7.168-2.752 43.627-39.488 101.696-61.248 163.499-61.248 61.824 0 119.893 21.76 163.499 61.248a10.73 10.73 0 0 0 15.083-.747 10.71 10.71 0 0 0-.747-15.083C369.131 23.701 305.963 0 238.827 0 171.733 0 108.565 23.701 60.992 66.752c-4.352 3.947-4.672 10.709-.747 15.083a10.773 10.773 0 0 0 7.915 3.498z"/><path d="M332.075 113.835a10.71 10.71 0 0 0-.747-15.083C306.56 76.352 273.728 64 238.827 64c-34.859 0-67.712 12.331-92.48 34.752-4.373 3.947-4.693 10.709-.768 15.061a10.683 10.683 0 0 0 7.915 3.52c2.56 0 5.12-.917 7.147-2.752 20.864-18.859 48.64-29.248 78.187-29.248 29.589 0 57.344 10.368 78.165 29.248a10.71 10.71 0 0 0 15.082-.746z"/></svg>