<svg xmlns="http://www.w3.org/2000/svg" viewBox="0 0 1155 1155"><path fill="#fff" d="M0 0h1155v1155H0z"/><path d="M385 70h35v35h-35zM420 70h35v35h-35zm175 0h35v35h-35zM630 70h35v35h-35zM665 70h35v35h-35zm-315 35h35v35h-35zm70 0h35v35h-35zM455 105h35v35h-35zM490 105h35v35h-35zM525 105h35v35h-35zM560 105h35v35h-35zm70 0h35v35h-35zm140 0h35v35h-35zm-420 35h35v35h-35zM385 140h35v35h-35zm140 0h35v35h-35zm70 0h35v35h-35zm105 0h35v35h-35zM350 175h35v35h-35zM385 175h35v35h-35zM420 175h35v35h-35zM455 175h35v35h-35zM490 175h35v35h-35zm140 0h35v35h-35zM665 175h35v35h-35zm70 0h35v35h-35zM770 175h35v35h-35zm-385 35h35v35h-35zM420 210h35v35h-35zm175 0h35v35h-35zM630 210h35v35h-35zM665 210h35v35h-35zM700 210h35v35h-35zM735 210h35v35h-35zM770 210h35v35h-35zm-350 35h35v35h-35zm70 0h35v35h-35zm105 0h35v35h-35zm105 0h35v35h-35zM770 245h35v35h-35zm-420 35h35v35h-35zm70 0h35v35h-35zm70 0h35v35h-35zm70 0h35v35h-35zm70 0h35v35h-35zm70 0h35v35h-35zM770 280h35v35h-35zm-420 35h35v35h-35zm140 0h35v35h-35zm70 0h35v35h-35zM595 315h35v35h-35zM630 315h35v35h-35zm70 0h35v35h-35zM735 315h35v35h-35zM770 315h35v35h-35zM70 350h35v35H70zm210 0h35v35h-35zm70 0h35v35h-35zM385 350h35v35h-35zm70 0h35v35h-35zm175 0h35v35h-35zM665 350h35v35h-35zm140 0h35v35h-35zM840 350h35v35h-35zm105 0h35v35h-35zM980 350h35v35h-35zM1015 350h35v35h-35zm-875 35h35v35h-35zM175 385h35v35h-35zm140 0h35v35h-35zm140 0h35v35h-35zM490 385h35v35h-35zM525 385h35v35h-35zm105 0h35v35h-35zm105 0h35v35h-35zm70 0h35v35h-35zm70 0h35v35h-35zM910 385h35v35h-35zm70 0h35v35h-35zM1015 385h35v35h-35zm-910 35h35v35h-35zM140 420h35v35h-35zm105 0h35v35h-35zM280 420h35v35h-35zm175 0h35v35h-35zm70 0h35v35h-35zM560 420h35v35h-35zM595 420h35v35h-35zM630 420h35v35h-35zm175 0h35v35h-35zm105 0h35v35h-35zm-770 35h35v35h-35zm70 0h35v35h-35zM245 455h35v35h-35zm140 0h35v35h-35zM420 455h35v35h-35zM455 455h35v35h-35zm70 0h35v35h-35zm210 0h35v35h-35zM770 455h35v35h-35zm70 0h35v35h-35zm70 0h35v35h-35zM945 455h35v35h-35zm-805 35h35v35h-35zm105 0h35v35h-35zM280 490h35v35h-35zm140 0h35v35h-35zM455 490h35v35h-35zm70 0h35v35h-35zm70 0h35v35h-35zM630 490h35v35h-35zm140 0h35v35h-35zm70 0h35v35h-35zm210 0h35v35h-35zM70 525h35v35H70zM105 525h35v35h-35zM140 525h35v35h-35zM175 525h35v35h-35zm70 0h35v35h-35zm105 0h35v35h-35zm105 0h35v35h-35zm175 0h35v35h-35zm70 0h35v35h-35zM735 525h35v35h-35zm105 0h35v35h-35zM875 525h35v35h-35zM910 525h35v35h-35zm105 0h35v35h-35zM1050 525h35v35h-35zM70 560h35v35H70zm140 0h35v35h-35zM245 560h35v35h-35zM280 560h35v35h-35zm70 0h35v35h-35zm105 0h35v35h-35zm210 0h35v35h-35zM700 560h35v35h-35zm175 0h35v35h-35zM910 560h35v35h-35zM945 560h35v35h-35zM980 560h35v35h-35zM70 595h35v35H70zm70 0h35v35h-35zm455 0h35v35h-35zm105 0h35v35h-35zm105 0h35v35h-35zM840 595h35v35h-35zM875 595h35v35h-35zm105 0h35v35h-35zm70 0h35v35h-35zM70 630h35v35H70zM105 630h35v35h-35zm70 0h35v35h-35zm70 0h35v35h-35zM280 630h35v35h-35zM315 630h35v35h-35zM350 630h35v35h-35zM385 630h35v35h-35zm105 0h35v35h-35zm140 0h35v35h-35zM665 630h35v35h-35zM700 630h35v35h-35zm245 0h35v35h-35zM980 630h35v35h-35zM70 665h35v35H70zm70 0h35v35h-35zM175 665h35v35h-35zm140 0h35v35h-35zM350 665h35v35h-35zm70 0h35v35h-35zM455 665h35v35h-35zm70 0h35v35h-35zM560 665h35v35h-35zm105 0h35v35h-35zM700 665h35v35h-35zM735 665h35v35h-35zM770 665h35v35h-35zM805 665h35v35h-35zM840 665h35v35h-35zm70 0h35v35h-35zm70 0h35v35h-35zM1015 665h35v35h-35zM1050 665h35v35h-35zM70 700h35v35H70zM105 700h35v35h-35zm175 0h35v35h-35zm105 0h35v35h-35zM420 700h35v35h-35zm175 0h35v35h-35zm140 0h35v35h-35zm70 0h35v35h-35zM840 700h35v35h-35zm70 0h35v35h-35zM945 700h35v35h-35zm105 0h35v35h-35zM70 735h35v35H70zm105 0h35v35h-35zm70 0h35v35h-35zm175 0h35v35h-35zM455 735h35v35h-35zM490 735h35v35h-35zM525 735h35v35h-35zm175 0h35v35h-35zm70 0h35v35h-35zm105 0h35v35h-35zM910 735h35v35h-35zM70 770h35v35H70zm105 0h35v35h-35zM210 770h35v35h-35zM245 770h35v35h-35zM280 770h35v35h-35zm70 0h35v35h-35zm105 0h35v35h-35zM490 770h35v35h-35zm70 0h35v35h-35zM595 770h35v35h-35zm70 0h35v35h-35zm105 0h35v35h-35zM805 770h35v35h-35zM840 770h35v35h-35zM875 770h35v35h-35zM910 770h35v35h-35zm70 0h35v35h-35zM1015 770h35v35h-35zM1050 770h35v35h-35zm-700 35h35v35h-35zm70 0h35v35h-35zm70 0h35v35h-35zm70 0h35v35h-35zm105 0h35v35h-35zM700 805h35v35h-35zm70 0h35v35h-35zm140 0h35v35h-35zM945 805h35v35h-35zm-560 35h35v35h-35zm70 0h35v35h-35zm245 0h35v35h-35zM735 840h35v35h-35zM770 840h35v35h-35zm70 0h35v35h-35zm70 0h35v35h-35zM945 840h35v35h-35zM980 840h35v35h-35zm-420 35h35v35h-35zM595 875h35v35h-35zM630 875h35v35h-35zm105 0h35v35h-35zM770 875h35v35h-35zm140 0h35v35h-35zm140 0h35v35h-35zm-665 35h35v35h-35zM420 910h35v35h-35zm105 0h35v35h-35zM560 910h35v35h-35zm70 0h35v35h-35zm105 0h35v35h-35zM770 910h35v35h-35zM805 910h35v35h-35zM840 910h35v35h-35zM875 910h35v35h-35zM910 910h35v35h-35zM945 910h35v35h-35zm-490 35h35v35h-35zm70 0h35v35h-35zM560 945h35v35h-35zm105 0h35v35h-35zM700 945h35v35h-35zm70 0h35v35h-35zM805 945h35v35h-35zm140 0h35v35h-35zM980 945h35v35h-35zM1015 945h35v35h-35zm-420 35h35v35h-35zM630 980h35v35h-35zM665 980h35v35h-35zm140 0h35v35h-35zM840 980h35v35h-35zM875 980h35v35h-35zM910 980h35v35h-35zM945 980h35v35h-35zM980 980h35v35h-35zM1015 980h35v35h-35zm-630 35h35v35h-35zm70 0h35v35h-35zM490 1015h35v35h-35zM525 1015h35v35h-35zM560 1015h35v35h-35zM595 1015h35v35h-35zm140 0h35v35h-35zm105 0h35v35h-35zm105 0h35v35h-35zM980 1015h35v35h-35zm70 0h35v35h-35zm-700 35h35v35h-35zM385 1050h35v35h-35zM420 1050h35v35h-35zm70 0h35v35h-35zM525 1050h35v35h-35zM560 1050h35v35h-35zm105 0h35v35h-35zM700 1050h35v35h-35zM735 1050h35v35h-35zm175 0h35v35h-35zm70 0h35v35h-35zM278.25 70H70v245h245V70h-36.75zm0 208.25h-171.5v-171.5h171.5v171.5zm770-208.25H840v245h245V70h-36.75zm0 208.25h-171.5v-171.5h171.5v171.5zM278.25 840H70v245h245V840h-36.75zm0 208.25h-171.5v-171.5h171.5v171.5zM140 140h105v105H140zm770 0h105v105H910zM140 910h105v105H140z"/></svg>