<svg xmlns="http://www.w3.org/2000/svg" viewBox="0 0 1155 1155"><path fill="#fff" d="M0 0h1155v1155H0z"/><path d="M385 70h35v35h-35z"/><path d="M420 70h35v35h-35zm175 0h35v35h-35z"/><path d="M630 70h35v35h-35z"/><path d="M665 70h35v35h-35zm-315 35h35v35h-35zm70 0h35v35h-35z"/><path d="M455 105h35v35h-35z"/><path d="M490 105h35v35h-35z"/><path d="M525 105h35v35h-35z"/><path d="M560 105h35v35h-35zm70 0h35v35h-35zm140 0h35v35h-35zm-420 35h35v35h-35z"/><path d="M385 140h35v35h-35zm140 0h35v35h-35zm70 0h35v35h-35zm105 0h35v35h-35z"/><path d="M350 175h35v35h-35z"/><path d="M385 175h35v35h-35z"/><path d="M420 175h35v35h-35z"/><path d="M455 175h35v35h-35z"/><path d="M490 175h35v35h-35zm140 0h35v35h-35z"/><path d="M665 175h35v35h-35zm70 0h35v35h-35z"/><path d="M770 175h35v35h-35zm-385 35h35v35h-35z"/><path d="M420 210h35v35h-35zm175 0h35v35h-35z"/><path d="M630 210h35v35h-35z"/><path d="M665 210h35v35h-35z"/><path d="M700 210h35v35h-35z"/><path d="M735 210h35v35h-35z"/><path d="M770 210h35v35h-35zm-350 35h35v35h-35zm70 0h35v35h-35zm105 0h35v35h-35zm105 0h35v35h-35z"/><path d="M770 245h35v35h-35zm-420 35h35v35h-35zm70 0h35v35h-35zm70 0h35v35h-35zm70 0h35v35h-35zm70 0h35v35h-35zm70 0h35v35h-35z"/><path d="M770 280h35v35h-35zm-420 35h35v35h-35zm140 0h35v35h-35zm70 0h35v35h-35z"/><path d="M595 315h35v35h-35z"/><path d="M630 315h35v35h-35zm70 0h35v35h-35z"/><path d="M735 315h35v35h-35z"/><path d="M770 315h35v35h-35zM70 350h35v35H70zm210 0h35v35h-35zm70 0h35v35h-35z"/><path d="M385 350h35v35h-35zm70 0h35v35h-35zm175 0h35v35h-35z"/><path d="M665 350h35v35h-35zm140 0h35v35h-35z"/><path d="M840 350h35v35h-35zm105 0h35v35h-35z"/><path d="M980 350h35v35h-35z"/><path d="M1015 350h35v35h-35zm-875 35h35v35h-35z"/><path d="M175 385h35v35h-35zm140 0h35v35h-35zm140 0h35v35h-35z"/><path d="M490 385h35v35h-35z"/><path d="M525 385h35v35h-35zm105 0h35v35h-35zm105 0h35v35h-35zm70 0h35v35h-35zm70 0h35v35h-35z"/><path d="M910 385h35v35h-35zm70 0h35v35h-35z"/><path d="M1015 385h35v35h-35zm-910 35h35v35h-35z"/><path d="M140 420h35v35h-35zm105 0h35v35h-35z"/><path d="M280 420h35v35h-35zm175 0h35v35h-35zm70 0h35v35h-35z"/><path d="M560 420h35v35h-35z"/><path d="M595 420h35v35h-35z"/><path d="M630 420h35v35h-35zm175 0h35v35h-35zm105 0h35v35h-35zm-770 35h35v35h-35zm70 0h35v35h-35z"/><path d="M245 455h35v35h-35zm140 0h35v35h-35z"/><path d="M420 455h35v35h-35z"/><path d="M455 455h35v35h-35zm70 0h35v35h-35zm210 0h35v35h-35z"/><path d="M770 455h35v35h-35zm70 0h35v35h-35zm70 0h35v35h-35z"/><path d="M945 455h35v35h-35zm-805 35h35v35h-35zm105 0h35v35h-35z"/><path d="M280 490h35v35h-35zm140 0h35v35h-35z"/><path d="M455 490h35v35h-35zm70 0h35v35h-35zm70 0h35v35h-35z"/><path d="M630 490h35v35h-35zm140 0h35v35h-35zm70 0h35v35h-35zm210 0h35v35h-35zM70 525h35v35H70z"/><path d="M105 525h35v35h-35z"/><path d="M140 525h35v35h-35z"/><path d="M175 525h35v35h-35zm70 0h35v35h-35zm105 0h35v35h-35zm105 0h35v35h-35zm175 0h35v35h-35zm70 0h35v35h-35z"/><path d="M735 525h35v35h-35zm105 0h35v35h-35z"/><path d="M875 525h35v35h-35z"/><path d="M910 525h35v35h-35zm105 0h35v35h-35z"/><path d="M1050 525h35v35h-35zM70 560h35v35H70zm140 0h35v35h-35z"/><path d="M245 560h35v35h-35z"/><path d="M280 560h35v35h-35zm70 0h35v35h-35zm105 0h35v35h-35zm210 0h35v35h-35z"/><path d="M700 560h35v35h-35zm175 0h35v35h-35z"/><path d="M910 560h35v35h-35z"/><path d="M945 560h35v35h-35z"/><path d="M980 560h35v35h-35zM70 595h35v35H70zm70 0h35v35h-35zm455 0h35v35h-35zm105 0h35v35h-35zm105 0h35v35h-35z"/><path d="M840 595h35v35h-35z"/><path d="M875 595h35v35h-35zm105 0h35v35h-35zm70 0h35v35h-35zM70 630h35v35H70z"/><path d="M105 630h35v35h-35zm70 0h35v35h-35zm70 0h35v35h-35z"/><path d="M280 630h35v35h-35z"/><path d="M315 630h35v35h-35z"/><path d="M350 630h35v35h-35z"/><path d="M385 630h35v35h-35zm105 0h35v35h-35zm140 0h35v35h-35z"/><path d="M665 630h35v35h-35z"/><path d="M700 630h35v35h-35zm245 0h35v35h-35z"/><path d="M980 630h35v35h-35zM70 665h35v35H70zm70 0h35v35h-35z"/><path d="M175 665h35v35h-35zm140 0h35v35h-35z"/><path d="M350 665h35v35h-35zm70 0h35v35h-35z"/><path d="M455 665h35v35h-35zm70 0h35v35h-35z"/><path d="M560 665h35v35h-35zm105 0h35v35h-35z"/><path d="M700 665h35v35h-35z"/><path d="M735 665h35v35h-35z"/><path d="M770 665h35v35h-35z"/><path d="M805 665h35v35h-35z"/><path d="M840 665h35v35h-35zm70 0h35v35h-35zm70 0h35v35h-35z"/><path d="M1015 665h35v35h-35z"/><path d="M1050 665h35v35h-35zM70 700h35v35H70z"/><path d="M105 700h35v35h-35zm175 0h35v35h-35zm105 0h35v35h-35z"/><path d="M420 700h35v35h-35zm175 0h35v35h-35zm140 0h35v35h-35zm70 0h35v35h-35z"/><path d="M840 700h35v35h-35zm70 0h35v35h-35z"/><path d="M945 700h35v35h-35zm105 0h35v35h-35zM70 735h35v35H70zm105 0h35v35h-35zm70 0h35v35h-35zm175 0h35v35h-35z"/><path d="M455 735h35v35h-35z"/><path d="M490 735h35v35h-35z"/><path d="M525 735h35v35h-35zm175 0h35v35h-35zm70 0h35v35h-35zm105 0h35v35h-35z"/><path d="M910 735h35v35h-35zM70 770h35v35H70zm105 0h35v35h-35z"/><path d="M210 770h35v35h-35z"/><path d="M245 770h35v35h-35z"/><path d="M280 770h35v35h-35zm70 0h35v35h-35zm105 0h35v35h-35z"/><path d="M490 770h35v35h-35zm70 0h35v35h-35z"/><path d="M595 770h35v35h-35zm70 0h35v35h-35zm105 0h35v35h-35z"/><path d="M805 770h35v35h-35z"/><path d="M840 770h35v35h-35z"/><path d="M875 770h35v35h-35z"/><path d="M910 770h35v35h-35zm70 0h35v35h-35z"/><path d="M1015 770h35v35h-35z"/><path d="M1050 770h35v35h-35zm-700 35h35v35h-35zm70 0h35v35h-35zm70 0h35v35h-35zm70 0h35v35h-35zm105 0h35v35h-35z"/><path d="M700 805h35v35h-35zm70 0h35v35h-35zm140 0h35v35h-35z"/><path d="M945 805h35v35h-35zm-560 35h35v35h-35zm70 0h35v35h-35zm245 0h35v35h-35z"/><path d="M735 840h35v35h-35z"/><path d="M770 840h35v35h-35zm70 0h35v35h-35zm70 0h35v35h-35z"/><path d="M945 840h35v35h-35z"/><path d="M980 840h35v35h-35zm-420 35h35v35h-35z"/><path d="M595 875h35v35h-35z"/><path d="M630 875h35v35h-35zm105 0h35v35h-35z"/><path d="M770 875h35v35h-35zm140 0h35v35h-35zm140 0h35v35h-35zm-665 35h35v35h-35z"/><path d="M420 910h35v35h-35zm105 0h35v35h-35z"/><path d="M560 910h35v35h-35zm70 0h35v35h-35zm105 0h35v35h-35z"/><path d="M770 910h35v35h-35z"/><path d="M805 910h35v35h-35z"/><path d="M840 910h35v35h-35z"/><path d="M875 910h35v35h-35z"/><path d="M910 910h35v35h-35z"/><path d="M945 910h35v35h-35zm-490 35h35v35h-35zm70 0h35v35h-35z"/><path d="M560 945h35v35h-35zm105 0h35v35h-35z"/><path d="M700 945h35v35h-35zm70 0h35v35h-35z"/><path d="M805 945h35v35h-35zm140 0h35v35h-35z"/><path d="M980 945h35v35h-35z"/><path d="M1015 945h35v35h-35zm-420 35h35v35h-35z"/><path d="M630 980h35v35h-35z"/><path d="M665 980h35v35h-35zm140 0h35v35h-35z"/><path d="M840 980h35v35h-35z"/><path d="M875 980h35v35h-35z"/><path d="M910 980h35v35h-35z"/><path d="M945 980h35v35h-35z"/><path d="M980 980h35v35h-35z"/><path d="M1015 980h35v35h-35zm-630 35h35v35h-35zm70 0h35v35h-35z"/><path d="M490 1015h35v35h-35z"/><path d="M525 1015h35v35h-35z"/><path d="M560 1015h35v35h-35z"/><path d="M595 1015h35v35h-35zm140 0h35v35h-35zm105 0h35v35h-35zm105 0h35v35h-35z"/><path d="M980 1015h35v35h-35zm70 0h35v35h-35zm-700 35h35v35h-35z"/><path d="M385 1050h35v35h-35z"/><path d="M420 1050h35v35h-35zm70 0h35v35h-35z"/><path d="M525 1050h35v35h-35z"/><path d="M560 1050h35v35h-35zm105 0h35v35h-35z"/><path d="M700 1050h35v35h-35z"/><path d="M735 1050h35v35h-35zm175 0h35v35h-35zm70 0h35v35h-35zM278.25 70H70v245h245V70h-36.75zm0 208.25h-171.5v-171.5h171.5v171.5zm770-208.25H840v245h245V70h-36.75zm0 208.25h-171.5v-171.5h171.5v171.5zM278.25 840H70v245h245V840h-36.75zm0 208.25h-171.5v-171.5h171.5v171.5zM140 140h105v105H140zm770 0h105v105H910zM140 910h105v105H140z"/></svg>
