<svg xmlns="http://www.w3.org/2000/svg" viewBox="0 0 128 128" fill="currentColor"><path d="M2 36.71a2 2 0 0 0 2-2V4h30.71a2 2 0 0 0 0-4H2a2 2 0 0 0-2 2v32.71a2 2 0 0 0 2 2zm124 54.58a2 2 0 0 0-2 2V124H93.29a2 2 0 0 0 0 4H126a2 2 0 0 0 2-2V93.29a2 2 0 0 0-2-2zM126 0H93.29a2 2 0 0 0 0 4H124v30.71a2 2 0 1 0 4 0V2a2 2 0 0 0-2-2zM34.71 124H4V93.29a2 2 0 0 0-4 0V126a2 2 0 0 0 2 2h32.71a2 2 0 1 0 0-4zM64 76a2 2 0 0 0 2-2V64a2 2 0 0 0-2-2H18a2 2 0 0 0 0 4h44v8a2 2 0 0 0 2 2zm22 28a2 2 0 0 0-2 2v2H66V97.22a2 2 0 0 0-4 0V110a2 2 0 0 0 2 2h22a2 2 0 0 0 2-2v-4a2 2 0 0 0-2-2zm12 8h12a2 2 0 0 0 0-4h-10v-2a2 2 0 0 0-4 0v4a2 2 0 0 0 2 2zM16 18v24a2 2 0 0 0 2 2h24a2 2 0 0 0 2-2V18a2 2 0 0 0-2-2H18a2 2 0 0 0-2 2zm4 2h20v20H20zm66 24h24a2 2 0 0 0 2-2V18a2 2 0 0 0-2-2H86a2 2 0 0 0-2 2v24a2 2 0 0 0 2 2zm2-24h20v20H88zM42 84H18a2 2 0 0 0-2 2v24a2 2 0 0 0 2 2h24a2 2 0 0 0 2-2V86a2 2 0 0 0-2-2zm-2 24H20V88h20zm56-30a2 2 0 0 0-2-2H78a2 2 0 0 0-2 2v16a2 2 0 0 0 2 2h16a2 2 0 0 0 2-2zm-4 14H80V80h12zm-66 12h8a2 2 0 0 0 2-2v-8a2 2 0 0 0-2-2h-8a2 2 0 0 0-2 2v8a2 2 0 0 0 2 2zm2-8h4v4h-4zm6-72h-8a2 2 0 0 0-2 2v8a2 2 0 0 0 2 2h8a2 2 0 0 0 2-2v-8a2 2 0 0 0-2-2zm-2 8h-4v-4h4zm70-8h-8a2 2 0 0 0-2 2v8a2 2 0 0 0 2 2h8a2 2 0 0 0 2-2v-8a2 2 0 0 0-2-2zm-2 8h-4v-4h4zM64 44a2 2 0 0 0 2-2V32h6v10a2 2 0 0 0 4 0V30a2 2 0 0 0-2-2H64a2 2 0 0 0-2 2v12a2 2 0 0 0 2 2zm0-24h10a2 2 0 0 0 0-4H64a2 2 0 0 0 0 4zm8 66a2 2 0 0 0-2-2H54a2 2 0 0 0-2 2v24a2 2 0 0 0 4 0V88h14a2 2 0 0 0 2-2zM18 56h8a2 2 0 0 0 0-4h-8a2 2 0 0 0 0 4zm36-24a2 2 0 0 0 2-2V18a2 2 0 0 0-4 0v12a2 2 0 0 0 2 2zM36 54a2 2 0 0 0 2 2h16a2 2 0 0 0 2-2V42a2 2 0 0 0-4 0v10H38a2 2 0 0 0-2 2zm28 2h14a2 2 0 0 0 0-4H64a2 2 0 0 0 0 4zM18 72a2 2 0 0 0 0 4h16a2 2 0 0 0 0-4zm32 0h-4a2 2 0 0 0 0 4h4a2 2 0 0 0 0-4zm62 14a2 2 0 0 0-2-2h-4a2 2 0 0 0 0 4h2v10a2 2 0 0 0 4 0zm-2-34H90a2 2 0 0 0-2 2v8H74a2 2 0 0 0 0 4h16a2 2 0 0 0 2-2v-8h18a2 2 0 0 0 0-4zm2 12a2 2 0 0 0-2-2h-8a2 2 0 0 0 0 4h6v6h-3a2 2 0 0 0 0 4h5a2 2 0 0 0 2-2z"/></svg>
