<svg xmlns="http://www.w3.org/2000/svg" fill="currentColor" fill-rule="evenodd" viewBox="3.02 3.03 27 26"><path d="M17.017 8.027a1 1 0 0 0-1 1v8.34l-6.395 2.74a1 1 0 0 0 .789 1.839l7-3a1 1 0 0 0 .605-.92v-9a1 1 0 0 0-1-1zm-1-5a13.02 13.02 0 0 0-13 13 13.02 13.02 0 0 0 13 13c5.202 0 9.705-3.064 11.779-7.492a1 1 0 1 0-1.812-.848 10.99 10.99 0 0 1-9.967 6.34c-6.087 0-11-4.913-11-11s4.913-11 11-11c4.183 0 7.809 2.328 9.67 5.754l-.912-.674a1 1 0 0 0-1.189 1.607l3.58 2.648a1 1 0 0 0 1.541-.477l1.256-3.648a1 1 0 0 0-.619-1.271 1 1 0 0 0-1.271.619l-.303.881c-2.087-4.399-6.571-7.439-11.752-7.439z"/></svg>