<svg xmlns="http://www.w3.org/2000/svg" fill="currentColor" viewBox="0 0 128 128"><path d="M13.755 71.727a49.932 49.932 0 1 0 89.094-30.921l2.96-2.96a5.381 5.381 0 0 0 6.858-8.238l-6.043-6.042a5.381 5.381 0 0 0-8.239 6.855l-2.867 2.867A49.7 49.7 0 0 0 68.94 22.074v-4.146a4.74 4.74 0 0 0 4.407-4.716V10.3a4.756 4.756 0 0 0-4.75-4.75h-9.819a4.756 4.756 0 0 0-4.75 4.75v2.909a4.74 4.74 0 0 0 4.412 4.716v4.145a50 50 0 0 0-44.685 49.657m87.726-45.686a1.884 1.884 0 0 1 2.668 0l6.043 6.042a1.89 1.89 0 0 1 0 2.668 1.933 1.933 0 0 1-2.668 0l-6.043-6.043a1.89 1.89 0 0 1 0-2.667m-.692 6.925 2.476 2.475-2.681 2.68-2.456-2.5zM57.528 13.212V10.3a1.25 1.25 0 0 1 1.25-1.25H68.6a1.25 1.25 0 0 1 1.25 1.25v2.909a1.25 1.25 0 0 1-1.25 1.25h-9.822a1.25 1.25 0 0 1-1.25-1.247m4.412 4.75h3.5v3.878a34 34 0 0 0-3.5 0zm1.747 7.338a46.432 46.432 0 1 1-46.432 46.427A46.485 46.485 0 0 1 63.687 25.3m0 53.268a6.837 6.837 0 0 0 1.753-13.446V49a1.75 1.75 0 0 0-3.5 0v16.121a6.837 6.837 0 0 0 1.747 13.447m-.017-10.18h.038a3.342 3.342 0 1 1-.038 0m-39.914 3.339a39.932 39.932 0 1 0 79.863 0 39.932 39.932 0 1 0-79.863 0m7.2-1.75H27.3a36.3 36.3 0 0 1 9.43-22.732l2.579 2.578a1.75 1.75 0 0 0 2.474-2.475l-2.578-2.578a36.3 36.3 0 0 1 22.732-9.43V39a1.75 1.75 0 0 0 3.5 0v-3.66a36.3 36.3 0 0 1 22.733 9.43l-2.578 2.578a1.75 1.75 0 0 0 2.474 2.475l2.578-2.578a36.3 36.3 0 0 1 9.431 22.732h-3.661a1.75 1.75 0 0 0 0 3.5h3.661a36.3 36.3 0 0 1-9.431 22.733l-2.578-2.579a1.75 1.75 0 0 0-2.474 2.475l2.578 2.579a36.3 36.3 0 0 1-22.733 9.43v-3.66a1.75 1.75 0 0 0-3.5 0v3.66a36.3 36.3 0 0 1-22.732-9.431l2.578-2.578a1.75 1.75 0 0 0-2.474-2.475l-2.579 2.578a36.3 36.3 0 0 1-9.43-22.732h3.66a1.75 1.75 0 1 0 0-3.5z"/></svg>