<svg xmlns="http://www.w3.org/2000/svg" fill="currentColor" viewBox="0 0 128 128"><path d="M105.73 89.3a2.001 2.001 0 0 0-2.83 2.83 14 14 0 0 1 0 19.8 2.001 2.001 0 1 0 2.83 2.83 18 18 0 0 0 0-25.46m-5.66 5.7a2.001 2.001 0 0 0-2.83 2.83 6 6 0 0 1 0 8.48 2.001 2.001 0 1 0 2.83 2.83 10 10 0 0 0 0-14.14m11.31-11.35a2 2 0 0 0-2.82 2.82 22 22 0 0 1 0 31.12 2 2 0 1 0 2.82 2.82 26 26 0 0 0 0-36.76M38 102a26 26 0 1 0 38-23l.05-67a12 12 0 0 0-24 0v2h-4a2 2 0 1 0 0 4h4v12H48a2 2 0 1 0 0 4h4v12h-4a2 2 0 1 0 0 4h4v12h-4a2 2 0 1 0 0 4h4v12.93A26.08 26.08 0 0 0 38 102m4 0a22.09 22.09 0 0 1 12.82-20A2 2 0 0 0 56 80.18L56.05 12a8 8 0 1 1 16 0L72 80.19A2 2 0 0 0 73.15 82 22 22 0 1 1 42 102m6 0a16 16 0 1 0 18-15.86L66.05 13a2 2 0 0 0-4 0L62 86.14A16 16 0 0 0 48 102m4 0a12 12 0 1 1 12 12 12 12 0 0 1-12-12M15.86 57a16.1 16.1 0 0 0 2.52-9 16.1 16.1 0 0 0-2.52-9 12.15 12.15 0 0 1-2-7 12.2 12.2 0 0 1 2-7 16 16 0 0 0 2.52-9 2 2 0 1 0-4 0 12.15 12.15 0 0 1-2 7 16.1 16.1 0 0 0-2.53 9 16.07 16.07 0 0 0 2.53 9 12.2 12.2 0 0 1 2 7 12.15 12.15 0 0 1-2 7 16.1 16.1 0 0 0-2.53 9 2 2 0 0 0 4 0 12.15 12.15 0 0 1 2.01-7m11.47 7a2 2 0 0 0 4 0 12.2 12.2 0 0 1 2-7 16 16 0 0 0 2.52-9 16.1 16.1 0 0 0-2.52-9 12.15 12.15 0 0 1-2-7 12.15 12.15 0 0 1 2-7 16.1 16.1 0 0 0 2.52-9 2 2 0 0 0-4 0 12.15 12.15 0 0 1-2 7 16.1 16.1 0 0 0-2.52 9 16.1 16.1 0 0 0 2.52 9 12.2 12.2 0 0 1 2 7 12.15 12.15 0 0 1-2 7 16.1 16.1 0 0 0-2.52 9"/></svg>