<svg xmlns="http://www.w3.org/2000/svg" viewBox="0 0 512 512" fill="currentColor"><path d="M437.776 75.74C338.221-24.652 176.132-25.33 75.74 74.224S-25.33 335.868 74.224 436.26l1.516 1.516c99.555 100.392 261.644 101.07 362.036 1.515s101.07-261.644 1.515-362.035l-1.515-1.516zM256.757 477.414c-121.669 0-220.655-98.986-220.655-220.655S135.088 36.104 256.757 36.104s220.655 98.986 220.655 220.655-98.986 220.655-220.655 220.655zm124.241-368.322-177.391 87.975a17.66 17.66 0 0 0-7.442 7.706l-87.323 176.479c-4.329 8.748-.746 19.349 8.002 23.677a17.67 17.67 0 0 0 15.675 0L309 317.608a17.666 17.666 0 0 0 7.86-7.735c.202-.184 87.821-177.105 87.821-177.105 4.329-8.748.746-19.349-8.002-23.677a17.67 17.67 0 0 0-15.675 0l-.006.001zM163.706 350.061l53.211-107.541 54.331 54.331-107.542 53.21zM296.36 271.98l-54.57-54.572 108.017-53.447L296.36 271.98z"/></svg>
