<svg xmlns="http://www.w3.org/2000/svg" fill="currentColor" viewBox="0 0 276.715 276.715"><path d="M138.357 0C62.067 0 0 62.066 0 138.357s62.067 138.357 138.357 138.357 138.357-62.066 138.357-138.357S214.648 0 138.357 0zm0 258.715C71.992 258.715 18 204.723 18 138.357S71.992 18 138.357 18s120.357 53.992 120.357 120.357-53.991 120.358-120.357 120.358zm2.455-192.695c-22.483 0-43.056 12.645-55.031 33.823a9.03 9.03 0 0 0-.391.781h-8.857c-6.121 0-9.583 7.021-5.857 11.877l17.083 22.265c2.955 3.852 8.76 3.852 11.715 0l17.082-22.265c3.726-4.856.264-11.877-5.857-11.877h-3.679c8.78-10.535 20.894-16.604 33.793-16.604 25.908 0 46.986 24.376 46.986 54.338s-21.078 54.339-46.986 54.339c-15.429 0-29.896-8.8-38.697-23.54a9 9 0 0 0-12.341-3.113 9.002 9.002 0 0 0-3.113 12.342c12.082 20.232 32.325 32.312 54.151 32.312 35.833 0 64.986-32.451 64.986-72.339S176.645 66.02 140.812 66.02z"/></svg>